<svg width="294" height="161" viewBox="0 0 294 161" fill="none" xmlns="http://www.w3.org/2000/svg">
<rect x="1" y="1" width="292" height="159" rx="2" fill="#F8F8F8" stroke="#DCDCDC" stroke-width="2" stroke-dasharray="5 5"/>
<path d="M163.588 58.7059C163.882 57.8235 164.176 56.9412 164.176 55.7647C164.176 49.2941 158.882 44 152.412 44C148 44 143.882 46.6471 142.118 50.4706C141.235 50.1765 140.059 49.8824 139.176 49.8824C135.059 49.8824 131.824 53.1176 131.824 57.2353C131.824 57.8235 131.824 58.4118 132.118 58.7059C126.824 59.5882 123 63.7059 123 69C123 74.5882 127.706 79.2941 133.294 79.2941H143.588V70.4706H134.765L148 57.2353L161.235 70.4706H152.412V79.2941H162.706C168.294 79.2941 173 74.5882 173 69C173 63.7059 168.882 59.2941 163.588 58.7059Z" fill="url(#paint0_linear_401_134)"/>
<path d="M74.7512 92.704C74.7512 93.348 74.6492 93.934 74.4452 94.462C74.2412 94.99 73.9532 95.442 73.5812 95.818C73.2092 96.194 72.7612 96.486 72.2372 96.694C71.7172 96.898 71.1412 97 70.5092 97H67.2992V88.402H70.5092C71.1412 88.402 71.7172 88.506 72.2372 88.714C72.7612 88.918 73.2092 89.21 73.5812 89.59C73.9532 89.966 74.2412 90.418 74.4452 90.946C74.6492 91.474 74.7512 92.06 74.7512 92.704ZM73.5572 92.704C73.5572 92.176 73.4852 91.704 73.3412 91.288C73.1972 90.872 72.9932 90.52 72.7292 90.232C72.4652 89.944 72.1452 89.724 71.7692 89.572C71.3932 89.42 70.9732 89.344 70.5092 89.344H68.4632V96.058H70.5092C70.9732 96.058 71.3932 95.982 71.7692 95.83C72.1452 95.678 72.4652 95.46 72.7292 95.176C72.9932 94.888 73.1972 94.536 73.3412 94.12C73.4852 93.704 73.5572 93.232 73.5572 92.704ZM77.0612 92.14C77.2532 91.724 77.4892 91.4 77.7692 91.168C78.0492 90.932 78.3912 90.814 78.7952 90.814C78.9232 90.814 79.0452 90.828 79.1612 90.856C79.2812 90.884 79.3872 90.928 79.4792 90.988L79.4012 91.786C79.3772 91.886 79.3172 91.936 79.2212 91.936C79.1652 91.936 79.0832 91.924 78.9752 91.9C78.8672 91.876 78.7452 91.864 78.6092 91.864C78.4172 91.864 78.2452 91.892 78.0932 91.948C77.9452 92.004 77.8112 92.088 77.6912 92.2C77.5752 92.308 77.4692 92.444 77.3732 92.608C77.2812 92.768 77.1972 92.952 77.1212 93.16V97H76.0472V90.922H76.6592C76.7752 90.922 76.8552 90.944 76.8992 90.988C76.9432 91.032 76.9732 91.108 76.9892 91.216L77.0612 92.14ZM83.6185 94.264C83.1265 94.28 82.7065 94.32 82.3585 94.384C82.0145 94.444 81.7325 94.524 81.5125 94.624C81.2965 94.724 81.1385 94.842 81.0385 94.978C80.9425 95.114 80.8945 95.266 80.8945 95.434C80.8945 95.594 80.9205 95.732 80.9725 95.848C81.0245 95.964 81.0945 96.06 81.1825 96.136C81.2745 96.208 81.3805 96.262 81.5005 96.298C81.6245 96.33 81.7565 96.346 81.8965 96.346C82.0845 96.346 82.2565 96.328 82.4125 96.292C82.5685 96.252 82.7145 96.196 82.8505 96.124C82.9905 96.052 83.1225 95.966 83.2465 95.866C83.3745 95.766 83.4985 95.652 83.6185 95.524V94.264ZM80.1685 91.78C80.5045 91.456 80.8665 91.214 81.2545 91.054C81.6425 90.894 82.0725 90.814 82.5445 90.814C82.8845 90.814 83.1865 90.87 83.4505 90.982C83.7145 91.094 83.9365 91.25 84.1165 91.45C84.2965 91.65 84.4325 91.892 84.5245 92.176C84.6165 92.46 84.6625 92.772 84.6625 93.112V97H84.1885C84.0845 97 84.0045 96.984 83.9485 96.952C83.8925 96.916 83.8485 96.848 83.8165 96.748L83.6965 96.172C83.5365 96.32 83.3805 96.452 83.2285 96.568C83.0765 96.68 82.9165 96.776 82.7485 96.856C82.5805 96.932 82.4005 96.99 82.2085 97.03C82.0205 97.074 81.8105 97.096 81.5785 97.096C81.3425 97.096 81.1205 97.064 80.9125 97C80.7045 96.932 80.5225 96.832 80.3665 96.7C80.2145 96.568 80.0925 96.402 80.0005 96.202C79.9125 95.998 79.8685 95.758 79.8685 95.482C79.8685 95.242 79.9345 95.012 80.0665 94.792C80.1985 94.568 80.4125 94.37 80.7085 94.198C81.0045 94.026 81.3905 93.886 81.8665 93.778C82.3425 93.666 82.9265 93.602 83.6185 93.586V93.112C83.6185 92.64 83.5165 92.284 83.3125 92.044C83.1085 91.8 82.8105 91.678 82.4185 91.678C82.1545 91.678 81.9325 91.712 81.7525 91.78C81.5765 91.844 81.4225 91.918 81.2905 92.002C81.1625 92.082 81.0505 92.156 80.9545 92.224C80.8625 92.288 80.7705 92.32 80.6785 92.32C80.6065 92.32 80.5445 92.302 80.4925 92.266C80.4405 92.226 80.3965 92.178 80.3605 92.122L80.1685 91.78ZM88.4074 94.03C88.6234 94.03 88.8134 94 88.9774 93.94C89.1414 93.88 89.2794 93.796 89.3914 93.688C89.5034 93.58 89.5874 93.452 89.6434 93.304C89.6994 93.152 89.7274 92.986 89.7274 92.806C89.7274 92.434 89.6134 92.138 89.3854 91.918C89.1614 91.698 88.8354 91.588 88.4074 91.588C87.9754 91.588 87.6454 91.698 87.4174 91.918C87.1934 92.138 87.0814 92.434 87.0814 92.806C87.0814 92.986 87.1094 93.152 87.1654 93.304C87.2254 93.452 87.3114 93.58 87.4234 93.688C87.5354 93.796 87.6734 93.88 87.8374 93.94C88.0014 94 88.1914 94.03 88.4074 94.03ZM90.3334 97.33C90.3334 97.182 90.2914 97.062 90.2074 96.97C90.1234 96.878 90.0094 96.806 89.8654 96.754C89.7254 96.702 89.5614 96.666 89.3734 96.646C89.1854 96.622 88.9854 96.604 88.7734 96.592C88.5654 96.58 88.3534 96.568 88.1374 96.556C87.9214 96.544 87.7134 96.524 87.5134 96.496C87.2894 96.6 87.1054 96.732 86.9614 96.892C86.8214 97.048 86.7514 97.232 86.7514 97.444C86.7514 97.58 86.7854 97.706 86.8534 97.822C86.9254 97.942 87.0334 98.044 87.1774 98.128C87.3214 98.216 87.5014 98.284 87.7174 98.332C87.9374 98.384 88.1954 98.41 88.4914 98.41C88.7794 98.41 89.0374 98.384 89.2654 98.332C89.4934 98.28 89.6854 98.206 89.8414 98.11C90.0014 98.014 90.1234 97.9 90.2074 97.768C90.2914 97.636 90.3334 97.49 90.3334 97.33ZM91.4194 91.162V91.558C91.4194 91.69 91.3354 91.774 91.1674 91.81L90.4774 91.9C90.6134 92.164 90.6814 92.456 90.6814 92.776C90.6814 93.072 90.6234 93.342 90.5074 93.586C90.3954 93.826 90.2394 94.032 90.0394 94.204C89.8394 94.376 89.5994 94.508 89.3194 94.6C89.0394 94.692 88.7354 94.738 88.4074 94.738C88.1234 94.738 87.8554 94.704 87.6034 94.636C87.4754 94.716 87.3774 94.802 87.3094 94.894C87.2414 94.982 87.2074 95.072 87.2074 95.164C87.2074 95.308 87.2654 95.418 87.3814 95.494C87.5014 95.566 87.6574 95.618 87.8494 95.65C88.0414 95.682 88.2594 95.702 88.5034 95.71C88.7514 95.718 89.0034 95.732 89.2594 95.752C89.5194 95.768 89.7714 95.798 90.0154 95.842C90.2634 95.886 90.4834 95.958 90.6754 96.058C90.8674 96.158 91.0214 96.296 91.1374 96.472C91.2574 96.648 91.3174 96.876 91.3174 97.156C91.3174 97.416 91.2514 97.668 91.1194 97.912C90.9914 98.156 90.8054 98.372 90.5614 98.56C90.3174 98.752 90.0174 98.904 89.6614 99.016C89.3094 99.132 88.9114 99.19 88.4674 99.19C88.0234 99.19 87.6354 99.146 87.3034 99.058C86.9714 98.97 86.6954 98.852 86.4754 98.704C86.2554 98.556 86.0894 98.384 85.9774 98.188C85.8694 97.996 85.8154 97.794 85.8154 97.582C85.8154 97.282 85.9094 97.028 86.0974 96.82C86.2854 96.612 86.5434 96.446 86.8714 96.322C86.6914 96.242 86.5474 96.136 86.4394 96.004C86.3354 95.868 86.2834 95.686 86.2834 95.458C86.2834 95.37 86.2994 95.28 86.3314 95.188C86.3634 95.092 86.4114 94.998 86.4754 94.906C86.5434 94.81 86.6254 94.72 86.7214 94.636C86.8174 94.552 86.9294 94.478 87.0574 94.414C86.7574 94.246 86.5234 94.024 86.3554 93.748C86.1874 93.468 86.1034 93.144 86.1034 92.776C86.1034 92.48 86.1594 92.212 86.2714 91.972C86.3874 91.728 86.5474 91.522 86.7514 91.354C86.9554 91.182 87.1974 91.05 87.4774 90.958C87.7614 90.866 88.0714 90.82 88.4074 90.82C88.6714 90.82 88.9174 90.85 89.1454 90.91C89.3734 90.966 89.5814 91.05 89.7694 91.162H91.4194ZM98.888 94.264C98.396 94.28 97.976 94.32 97.628 94.384C97.284 94.444 97.002 94.524 96.782 94.624C96.566 94.724 96.408 94.842 96.308 94.978C96.212 95.114 96.164 95.266 96.164 95.434C96.164 95.594 96.19 95.732 96.242 95.848C96.294 95.964 96.364 96.06 96.452 96.136C96.544 96.208 96.65 96.262 96.77 96.298C96.894 96.33 97.026 96.346 97.166 96.346C97.354 96.346 97.526 96.328 97.682 96.292C97.838 96.252 97.984 96.196 98.12 96.124C98.26 96.052 98.392 95.966 98.516 95.866C98.644 95.766 98.768 95.652 98.888 95.524V94.264ZM95.438 91.78C95.774 91.456 96.136 91.214 96.524 91.054C96.912 90.894 97.342 90.814 97.814 90.814C98.154 90.814 98.456 90.87 98.72 90.982C98.984 91.094 99.206 91.25 99.386 91.45C99.566 91.65 99.702 91.892 99.794 92.176C99.886 92.46 99.932 92.772 99.932 93.112V97H99.458C99.354 97 99.274 96.984 99.218 96.952C99.162 96.916 99.118 96.848 99.086 96.748L98.966 96.172C98.806 96.32 98.65 96.452 98.498 96.568C98.346 96.68 98.186 96.776 98.018 96.856C97.85 96.932 97.67 96.99 97.478 97.03C97.29 97.074 97.08 97.096 96.848 97.096C96.612 97.096 96.39 97.064 96.182 97C95.974 96.932 95.792 96.832 95.636 96.7C95.484 96.568 95.362 96.402 95.27 96.202C95.182 95.998 95.138 95.758 95.138 95.482C95.138 95.242 95.204 95.012 95.336 94.792C95.468 94.568 95.682 94.37 95.978 94.198C96.274 94.026 96.66 93.886 97.136 93.778C97.612 93.666 98.196 93.602 98.888 93.586V93.112C98.888 92.64 98.786 92.284 98.582 92.044C98.378 91.8 98.08 91.678 97.688 91.678C97.424 91.678 97.202 91.712 97.022 91.78C96.846 91.844 96.692 91.918 96.56 92.002C96.432 92.082 96.32 92.156 96.224 92.224C96.132 92.288 96.04 92.32 95.948 92.32C95.876 92.32 95.814 92.302 95.762 92.266C95.71 92.226 95.666 92.178 95.63 92.122L95.438 91.78ZM102.567 91.804C102.699 91.656 102.839 91.522 102.987 91.402C103.135 91.282 103.291 91.18 103.455 91.096C103.623 91.008 103.799 90.942 103.983 90.898C104.171 90.85 104.373 90.826 104.589 90.826C104.921 90.826 105.213 90.882 105.465 90.994C105.721 91.102 105.933 91.258 106.101 91.462C106.273 91.662 106.403 91.904 106.491 92.188C106.579 92.472 106.623 92.786 106.623 93.13V97H105.549V93.13C105.549 92.67 105.443 92.314 105.231 92.062C105.023 91.806 104.705 91.678 104.277 91.678C103.961 91.678 103.665 91.754 103.389 91.906C103.117 92.058 102.865 92.264 102.633 92.524V97H101.559V90.922H102.201C102.353 90.922 102.447 90.996 102.483 91.144L102.567 91.804ZM112.21 92.368C112.01 92.1 111.794 91.914 111.562 91.81C111.33 91.702 111.07 91.648 110.782 91.648C110.218 91.648 109.784 91.85 109.48 92.254C109.176 92.658 109.024 93.234 109.024 93.982C109.024 94.378 109.058 94.718 109.126 95.002C109.194 95.282 109.294 95.514 109.426 95.698C109.558 95.878 109.72 96.01 109.912 96.094C110.104 96.178 110.322 96.22 110.566 96.22C110.918 96.22 111.224 96.14 111.484 95.98C111.748 95.82 111.99 95.594 112.21 95.302V92.368ZM113.278 88.162V97H112.642C112.49 97 112.394 96.926 112.354 96.778L112.258 96.04C111.998 96.352 111.702 96.604 111.37 96.796C111.038 96.988 110.654 97.084 110.218 97.084C109.87 97.084 109.554 97.018 109.27 96.886C108.986 96.75 108.744 96.552 108.544 96.292C108.344 96.032 108.19 95.708 108.082 95.32C107.974 94.932 107.92 94.486 107.92 93.982C107.92 93.534 107.98 93.118 108.1 92.734C108.22 92.346 108.392 92.01 108.616 91.726C108.84 91.442 109.114 91.22 109.438 91.06C109.766 90.896 110.134 90.814 110.542 90.814C110.914 90.814 111.232 90.878 111.496 91.006C111.764 91.13 112.002 91.304 112.21 91.528V88.162H113.278ZM121.995 92.368C121.795 92.1 121.579 91.914 121.347 91.81C121.115 91.702 120.855 91.648 120.567 91.648C120.003 91.648 119.569 91.85 119.265 92.254C118.961 92.658 118.809 93.234 118.809 93.982C118.809 94.378 118.843 94.718 118.911 95.002C118.979 95.282 119.079 95.514 119.211 95.698C119.343 95.878 119.505 96.01 119.697 96.094C119.889 96.178 120.107 96.22 120.351 96.22C120.703 96.22 121.009 96.14 121.269 95.98C121.533 95.82 121.775 95.594 121.995 95.302V92.368ZM123.063 88.162V97H122.427C122.275 97 122.179 96.926 122.139 96.778L122.043 96.04C121.783 96.352 121.487 96.604 121.155 96.796C120.823 96.988 120.439 97.084 120.003 97.084C119.655 97.084 119.339 97.018 119.055 96.886C118.771 96.75 118.529 96.552 118.329 96.292C118.129 96.032 117.975 95.708 117.867 95.32C117.759 94.932 117.705 94.486 117.705 93.982C117.705 93.534 117.765 93.118 117.885 92.734C118.005 92.346 118.177 92.01 118.401 91.726C118.625 91.442 118.899 91.22 119.223 91.06C119.551 90.896 119.919 90.814 120.327 90.814C120.699 90.814 121.017 90.878 121.281 91.006C121.549 91.13 121.787 91.304 121.995 91.528V88.162H123.063ZM125.764 92.14C125.956 91.724 126.192 91.4 126.472 91.168C126.752 90.932 127.094 90.814 127.498 90.814C127.626 90.814 127.748 90.828 127.864 90.856C127.984 90.884 128.09 90.928 128.182 90.988L128.104 91.786C128.08 91.886 128.02 91.936 127.924 91.936C127.868 91.936 127.786 91.924 127.678 91.9C127.57 91.876 127.448 91.864 127.312 91.864C127.12 91.864 126.948 91.892 126.796 91.948C126.648 92.004 126.514 92.088 126.394 92.2C126.278 92.308 126.172 92.444 126.076 92.608C125.984 92.768 125.9 92.952 125.824 93.16V97H124.75V90.922H125.362C125.478 90.922 125.558 90.944 125.602 90.988C125.646 91.032 125.676 91.108 125.692 91.216L125.764 92.14ZM131.437 90.826C131.881 90.826 132.281 90.9 132.637 91.048C132.993 91.196 133.297 91.406 133.549 91.678C133.801 91.95 133.993 92.28 134.125 92.668C134.261 93.052 134.329 93.482 134.329 93.958C134.329 94.438 134.261 94.87 134.125 95.254C133.993 95.638 133.801 95.966 133.549 96.238C133.297 96.51 132.993 96.72 132.637 96.868C132.281 97.012 131.881 97.084 131.437 97.084C130.989 97.084 130.585 97.012 130.225 96.868C129.869 96.72 129.565 96.51 129.313 96.238C129.061 95.966 128.867 95.638 128.731 95.254C128.599 94.87 128.533 94.438 128.533 93.958C128.533 93.482 128.599 93.052 128.731 92.668C128.867 92.28 129.061 91.95 129.313 91.678C129.565 91.406 129.869 91.196 130.225 91.048C130.585 90.9 130.989 90.826 131.437 90.826ZM131.437 96.25C132.037 96.25 132.485 96.05 132.781 95.65C133.077 95.246 133.225 94.684 133.225 93.964C133.225 93.24 133.077 92.676 132.781 92.272C132.485 91.868 132.037 91.666 131.437 91.666C131.133 91.666 130.867 91.718 130.639 91.822C130.415 91.926 130.227 92.076 130.075 92.272C129.927 92.468 129.815 92.71 129.739 92.998C129.667 93.282 129.631 93.604 129.631 93.964C129.631 94.684 129.779 95.246 130.075 95.65C130.375 96.05 130.829 96.25 131.437 96.25ZM136.758 95.536C136.954 95.8 137.168 95.986 137.4 96.094C137.632 96.202 137.892 96.256 138.18 96.256C138.748 96.256 139.184 96.054 139.488 95.65C139.792 95.246 139.944 94.67 139.944 93.922C139.944 93.526 139.908 93.186 139.836 92.902C139.768 92.618 139.668 92.386 139.536 92.206C139.404 92.022 139.242 91.888 139.05 91.804C138.858 91.72 138.64 91.678 138.396 91.678C138.048 91.678 137.742 91.758 137.478 91.918C137.218 92.078 136.978 92.304 136.758 92.596V95.536ZM136.704 91.864C136.96 91.548 137.256 91.294 137.592 91.102C137.928 90.91 138.312 90.814 138.744 90.814C139.096 90.814 139.414 90.882 139.698 91.018C139.982 91.15 140.224 91.348 140.424 91.612C140.624 91.872 140.778 92.196 140.886 92.584C140.994 92.972 141.048 93.418 141.048 93.922C141.048 94.37 140.988 94.788 140.868 95.176C140.748 95.56 140.574 95.894 140.346 96.178C140.122 96.458 139.846 96.68 139.518 96.844C139.194 97.004 138.828 97.084 138.42 97.084C138.048 97.084 137.728 97.022 137.46 96.898C137.196 96.77 136.962 96.594 136.758 96.37V99.058H135.684V90.922H136.326C136.478 90.922 136.572 90.996 136.608 91.144L136.704 91.864ZM150.42 90.922L147.03 98.794C146.994 98.874 146.948 98.938 146.892 98.986C146.84 99.034 146.758 99.058 146.646 99.058H145.854L146.964 96.646L144.456 90.922H145.38C145.472 90.922 145.544 90.946 145.596 90.994C145.652 91.038 145.69 91.088 145.71 91.144L147.336 94.972C147.4 95.14 147.454 95.316 147.498 95.5C147.554 95.312 147.614 95.134 147.678 94.966L149.256 91.144C149.28 91.08 149.32 91.028 149.376 90.988C149.436 90.944 149.502 90.922 149.574 90.922H150.42ZM153.762 90.826C154.206 90.826 154.606 90.9 154.962 91.048C155.318 91.196 155.622 91.406 155.874 91.678C156.126 91.95 156.318 92.28 156.45 92.668C156.586 93.052 156.654 93.482 156.654 93.958C156.654 94.438 156.586 94.87 156.45 95.254C156.318 95.638 156.126 95.966 155.874 96.238C155.622 96.51 155.318 96.72 154.962 96.868C154.606 97.012 154.206 97.084 153.762 97.084C153.314 97.084 152.91 97.012 152.55 96.868C152.194 96.72 151.89 96.51 151.638 96.238C151.386 95.966 151.192 95.638 151.056 95.254C150.924 94.87 150.858 94.438 150.858 93.958C150.858 93.482 150.924 93.052 151.056 92.668C151.192 92.28 151.386 91.95 151.638 91.678C151.89 91.406 152.194 91.196 152.55 91.048C152.91 90.9 153.314 90.826 153.762 90.826ZM153.762 96.25C154.362 96.25 154.81 96.05 155.106 95.65C155.402 95.246 155.55 94.684 155.55 93.964C155.55 93.24 155.402 92.676 155.106 92.272C154.81 91.868 154.362 91.666 153.762 91.666C153.458 91.666 153.192 91.718 152.964 91.822C152.74 91.926 152.552 92.076 152.4 92.272C152.252 92.468 152.14 92.71 152.064 92.998C151.992 93.282 151.956 93.604 151.956 93.964C151.956 94.684 152.104 95.246 152.4 95.65C152.7 96.05 153.154 96.25 153.762 96.25ZM163.006 90.922V97H162.37C162.218 97 162.122 96.926 162.082 96.778L161.998 96.124C161.734 96.416 161.438 96.652 161.11 96.832C160.782 97.008 160.406 97.096 159.982 97.096C159.65 97.096 159.356 97.042 159.1 96.934C158.848 96.822 158.636 96.666 158.464 96.466C158.292 96.266 158.162 96.024 158.074 95.74C157.99 95.456 157.948 95.142 157.948 94.798V90.922H159.016V94.798C159.016 95.258 159.12 95.614 159.328 95.866C159.54 96.118 159.862 96.244 160.294 96.244C160.61 96.244 160.904 96.17 161.176 96.022C161.452 95.87 161.706 95.662 161.938 95.398V90.922H163.006ZM165.714 92.14C165.906 91.724 166.142 91.4 166.422 91.168C166.702 90.932 167.044 90.814 167.448 90.814C167.576 90.814 167.698 90.828 167.814 90.856C167.934 90.884 168.04 90.928 168.132 90.988L168.054 91.786C168.03 91.886 167.97 91.936 167.874 91.936C167.818 91.936 167.736 91.924 167.628 91.9C167.52 91.876 167.398 91.864 167.262 91.864C167.07 91.864 166.898 91.892 166.746 91.948C166.598 92.004 166.464 92.088 166.344 92.2C166.228 92.308 166.122 92.444 166.026 92.608C165.934 92.768 165.85 92.952 165.774 93.16V97H164.7V90.922H165.312C165.428 90.922 165.508 90.944 165.552 90.988C165.596 91.032 165.626 91.108 165.642 91.216L165.714 92.14ZM173.011 90.922V97H171.943V90.922H173.011ZM173.239 89.014C173.239 89.118 173.217 89.216 173.173 89.308C173.133 89.396 173.077 89.476 173.005 89.548C172.937 89.616 172.855 89.67 172.759 89.71C172.667 89.75 172.569 89.77 172.465 89.77C172.361 89.77 172.263 89.75 172.171 89.71C172.083 89.67 172.005 89.616 171.937 89.548C171.869 89.476 171.815 89.396 171.775 89.308C171.735 89.216 171.715 89.118 171.715 89.014C171.715 88.91 171.735 88.812 171.775 88.72C171.815 88.624 171.869 88.542 171.937 88.474C172.005 88.402 172.083 88.346 172.171 88.306C172.263 88.266 172.361 88.246 172.465 88.246C172.569 88.246 172.667 88.266 172.759 88.306C172.855 88.346 172.937 88.402 173.005 88.474C173.077 88.542 173.133 88.624 173.173 88.72C173.217 88.812 173.239 88.91 173.239 89.014ZM174.766 97V90.922H175.408C175.56 90.922 175.654 90.996 175.69 91.144L175.768 91.768C175.992 91.492 176.244 91.266 176.524 91.09C176.804 90.914 177.128 90.826 177.496 90.826C177.904 90.826 178.234 90.94 178.486 91.168C178.742 91.396 178.926 91.704 179.038 92.092C179.126 91.872 179.238 91.682 179.374 91.522C179.514 91.362 179.67 91.23 179.842 91.126C180.014 91.022 180.196 90.946 180.388 90.898C180.584 90.85 180.782 90.826 180.982 90.826C181.302 90.826 181.586 90.878 181.834 90.982C182.086 91.082 182.298 91.23 182.47 91.426C182.646 91.622 182.78 91.864 182.872 92.152C182.964 92.436 183.01 92.762 183.01 93.13V97H181.936V93.13C181.936 92.654 181.832 92.294 181.624 92.05C181.416 91.802 181.116 91.678 180.724 91.678C180.548 91.678 180.38 91.71 180.22 91.774C180.064 91.834 179.926 91.924 179.806 92.044C179.686 92.164 179.59 92.316 179.518 92.5C179.45 92.68 179.416 92.89 179.416 93.13V97H178.342V93.13C178.342 92.642 178.244 92.278 178.048 92.038C177.852 91.798 177.566 91.678 177.19 91.678C176.926 91.678 176.682 91.75 176.458 91.894C176.234 92.034 176.028 92.226 175.84 92.47V97H174.766ZM187.927 94.264C187.435 94.28 187.015 94.32 186.667 94.384C186.323 94.444 186.041 94.524 185.821 94.624C185.605 94.724 185.447 94.842 185.347 94.978C185.251 95.114 185.203 95.266 185.203 95.434C185.203 95.594 185.229 95.732 185.281 95.848C185.333 95.964 185.403 96.06 185.491 96.136C185.583 96.208 185.689 96.262 185.809 96.298C185.933 96.33 186.065 96.346 186.205 96.346C186.393 96.346 186.565 96.328 186.721 96.292C186.877 96.252 187.023 96.196 187.159 96.124C187.299 96.052 187.431 95.966 187.555 95.866C187.683 95.766 187.807 95.652 187.927 95.524V94.264ZM184.477 91.78C184.813 91.456 185.175 91.214 185.563 91.054C185.951 90.894 186.381 90.814 186.853 90.814C187.193 90.814 187.495 90.87 187.759 90.982C188.023 91.094 188.245 91.25 188.425 91.45C188.605 91.65 188.741 91.892 188.833 92.176C188.925 92.46 188.971 92.772 188.971 93.112V97H188.497C188.393 97 188.313 96.984 188.257 96.952C188.201 96.916 188.157 96.848 188.125 96.748L188.005 96.172C187.845 96.32 187.689 96.452 187.537 96.568C187.385 96.68 187.225 96.776 187.057 96.856C186.889 96.932 186.709 96.99 186.517 97.03C186.329 97.074 186.119 97.096 185.887 97.096C185.651 97.096 185.429 97.064 185.221 97C185.013 96.932 184.831 96.832 184.675 96.7C184.523 96.568 184.401 96.402 184.309 96.202C184.221 95.998 184.177 95.758 184.177 95.482C184.177 95.242 184.243 95.012 184.375 94.792C184.507 94.568 184.721 94.37 185.017 94.198C185.313 94.026 185.699 93.886 186.175 93.778C186.651 93.666 187.235 93.602 187.927 93.586V93.112C187.927 92.64 187.825 92.284 187.621 92.044C187.417 91.8 187.119 91.678 186.727 91.678C186.463 91.678 186.241 91.712 186.061 91.78C185.885 91.844 185.731 91.918 185.599 92.002C185.471 92.082 185.359 92.156 185.263 92.224C185.171 92.288 185.079 92.32 184.987 92.32C184.915 92.32 184.853 92.302 184.801 92.266C184.749 92.226 184.705 92.178 184.669 92.122L184.477 91.78ZM192.716 94.03C192.932 94.03 193.122 94 193.286 93.94C193.45 93.88 193.588 93.796 193.7 93.688C193.812 93.58 193.896 93.452 193.952 93.304C194.008 93.152 194.036 92.986 194.036 92.806C194.036 92.434 193.922 92.138 193.694 91.918C193.47 91.698 193.144 91.588 192.716 91.588C192.284 91.588 191.954 91.698 191.726 91.918C191.502 92.138 191.39 92.434 191.39 92.806C191.39 92.986 191.418 93.152 191.474 93.304C191.534 93.452 191.62 93.58 191.732 93.688C191.844 93.796 191.982 93.88 192.146 93.94C192.31 94 192.5 94.03 192.716 94.03ZM194.642 97.33C194.642 97.182 194.6 97.062 194.516 96.97C194.432 96.878 194.318 96.806 194.174 96.754C194.034 96.702 193.87 96.666 193.682 96.646C193.494 96.622 193.294 96.604 193.082 96.592C192.874 96.58 192.662 96.568 192.446 96.556C192.23 96.544 192.022 96.524 191.822 96.496C191.598 96.6 191.414 96.732 191.27 96.892C191.13 97.048 191.06 97.232 191.06 97.444C191.06 97.58 191.094 97.706 191.162 97.822C191.234 97.942 191.342 98.044 191.486 98.128C191.63 98.216 191.81 98.284 192.026 98.332C192.246 98.384 192.504 98.41 192.8 98.41C193.088 98.41 193.346 98.384 193.574 98.332C193.802 98.28 193.994 98.206 194.15 98.11C194.31 98.014 194.432 97.9 194.516 97.768C194.6 97.636 194.642 97.49 194.642 97.33ZM195.728 91.162V91.558C195.728 91.69 195.644 91.774 195.476 91.81L194.786 91.9C194.922 92.164 194.99 92.456 194.99 92.776C194.99 93.072 194.932 93.342 194.816 93.586C194.704 93.826 194.548 94.032 194.348 94.204C194.148 94.376 193.908 94.508 193.628 94.6C193.348 94.692 193.044 94.738 192.716 94.738C192.432 94.738 192.164 94.704 191.912 94.636C191.784 94.716 191.686 94.802 191.618 94.894C191.55 94.982 191.516 95.072 191.516 95.164C191.516 95.308 191.574 95.418 191.69 95.494C191.81 95.566 191.966 95.618 192.158 95.65C192.35 95.682 192.568 95.702 192.812 95.71C193.06 95.718 193.312 95.732 193.568 95.752C193.828 95.768 194.08 95.798 194.324 95.842C194.572 95.886 194.792 95.958 194.984 96.058C195.176 96.158 195.33 96.296 195.446 96.472C195.566 96.648 195.626 96.876 195.626 97.156C195.626 97.416 195.56 97.668 195.428 97.912C195.3 98.156 195.114 98.372 194.87 98.56C194.626 98.752 194.326 98.904 193.97 99.016C193.618 99.132 193.22 99.19 192.776 99.19C192.332 99.19 191.944 99.146 191.612 99.058C191.28 98.97 191.004 98.852 190.784 98.704C190.564 98.556 190.398 98.384 190.286 98.188C190.178 97.996 190.124 97.794 190.124 97.582C190.124 97.282 190.218 97.028 190.406 96.82C190.594 96.612 190.852 96.446 191.18 96.322C191 96.242 190.856 96.136 190.748 96.004C190.644 95.868 190.592 95.686 190.592 95.458C190.592 95.37 190.608 95.28 190.64 95.188C190.672 95.092 190.72 94.998 190.784 94.906C190.852 94.81 190.934 94.72 191.03 94.636C191.126 94.552 191.238 94.478 191.366 94.414C191.066 94.246 190.832 94.024 190.664 93.748C190.496 93.468 190.412 93.144 190.412 92.776C190.412 92.48 190.468 92.212 190.58 91.972C190.696 91.728 190.856 91.522 191.06 91.354C191.264 91.182 191.506 91.05 191.786 90.958C192.07 90.866 192.38 90.82 192.716 90.82C192.98 90.82 193.226 90.85 193.454 90.91C193.682 90.966 193.89 91.05 194.078 91.162H195.728ZM200.807 93.298C200.807 93.05 200.771 92.824 200.699 92.62C200.631 92.412 200.529 92.234 200.393 92.086C200.261 91.934 200.099 91.818 199.907 91.738C199.715 91.654 199.497 91.612 199.253 91.612C198.741 91.612 198.335 91.762 198.035 92.062C197.739 92.358 197.555 92.77 197.483 93.298H200.807ZM201.671 96.148C201.539 96.308 201.381 96.448 201.197 96.568C201.013 96.684 200.815 96.78 200.603 96.856C200.395 96.932 200.179 96.988 199.955 97.024C199.731 97.064 199.509 97.084 199.289 97.084C198.869 97.084 198.481 97.014 198.125 96.874C197.773 96.73 197.467 96.522 197.207 96.25C196.951 95.974 196.751 95.634 196.607 95.23C196.463 94.826 196.391 94.362 196.391 93.838C196.391 93.414 196.455 93.018 196.583 92.65C196.715 92.282 196.903 91.964 197.147 91.696C197.391 91.424 197.689 91.212 198.041 91.06C198.393 90.904 198.789 90.826 199.229 90.826C199.593 90.826 199.929 90.888 200.237 91.012C200.549 91.132 200.817 91.308 201.041 91.54C201.269 91.768 201.447 92.052 201.575 92.392C201.703 92.728 201.767 93.112 201.767 93.544C201.767 93.712 201.749 93.824 201.713 93.88C201.677 93.936 201.609 93.964 201.509 93.964H197.447C197.459 94.348 197.511 94.682 197.603 94.966C197.699 95.25 197.831 95.488 197.999 95.68C198.167 95.868 198.367 96.01 198.599 96.106C198.831 96.198 199.091 96.244 199.379 96.244C199.647 96.244 199.877 96.214 200.069 96.154C200.265 96.09 200.433 96.022 200.573 95.95C200.713 95.878 200.829 95.812 200.921 95.752C201.017 95.688 201.099 95.656 201.167 95.656C201.255 95.656 201.323 95.69 201.371 95.758L201.671 96.148ZM207.223 91.732C207.483 91.456 207.771 91.236 208.087 91.072C208.403 90.908 208.767 90.826 209.179 90.826C209.511 90.826 209.803 90.882 210.055 90.994C210.311 91.102 210.523 91.258 210.691 91.462C210.863 91.662 210.993 91.904 211.081 92.188C211.169 92.472 211.213 92.786 211.213 93.13V97H210.139V93.13C210.139 92.67 210.033 92.314 209.821 92.062C209.613 91.806 209.295 91.678 208.867 91.678C208.551 91.678 208.255 91.754 207.979 91.906C207.707 92.058 207.455 92.264 207.223 92.524V97H206.149V88.162H207.223V91.732ZM216.908 93.298C216.908 93.05 216.872 92.824 216.8 92.62C216.732 92.412 216.63 92.234 216.494 92.086C216.362 91.934 216.2 91.818 216.008 91.738C215.816 91.654 215.598 91.612 215.354 91.612C214.842 91.612 214.436 91.762 214.136 92.062C213.84 92.358 213.656 92.77 213.584 93.298H216.908ZM217.772 96.148C217.64 96.308 217.482 96.448 217.298 96.568C217.114 96.684 216.916 96.78 216.704 96.856C216.496 96.932 216.28 96.988 216.056 97.024C215.832 97.064 215.61 97.084 215.39 97.084C214.97 97.084 214.582 97.014 214.226 96.874C213.874 96.73 213.568 96.522 213.308 96.25C213.052 95.974 212.852 95.634 212.708 95.23C212.564 94.826 212.492 94.362 212.492 93.838C212.492 93.414 212.556 93.018 212.684 92.65C212.816 92.282 213.004 91.964 213.248 91.696C213.492 91.424 213.79 91.212 214.142 91.06C214.494 90.904 214.89 90.826 215.33 90.826C215.694 90.826 216.03 90.888 216.338 91.012C216.65 91.132 216.918 91.308 217.142 91.54C217.37 91.768 217.548 92.052 217.676 92.392C217.804 92.728 217.868 93.112 217.868 93.544C217.868 93.712 217.85 93.824 217.814 93.88C217.778 93.936 217.71 93.964 217.61 93.964H213.548C213.56 94.348 213.612 94.682 213.704 94.966C213.8 95.25 213.932 95.488 214.1 95.68C214.268 95.868 214.468 96.01 214.7 96.106C214.932 96.198 215.192 96.244 215.48 96.244C215.748 96.244 215.978 96.214 216.17 96.154C216.366 96.09 216.534 96.022 216.674 95.95C216.814 95.878 216.93 95.812 217.022 95.752C217.118 95.688 217.2 95.656 217.268 95.656C217.356 95.656 217.424 95.69 217.472 95.758L217.772 96.148ZM220.194 92.14C220.386 91.724 220.622 91.4 220.902 91.168C221.182 90.932 221.524 90.814 221.928 90.814C222.056 90.814 222.178 90.828 222.294 90.856C222.414 90.884 222.52 90.928 222.612 90.988L222.534 91.786C222.51 91.886 222.45 91.936 222.354 91.936C222.298 91.936 222.216 91.924 222.108 91.9C222 91.876 221.878 91.864 221.742 91.864C221.55 91.864 221.378 91.892 221.226 91.948C221.078 92.004 220.944 92.088 220.824 92.2C220.708 92.308 220.602 92.444 220.506 92.608C220.414 92.768 220.33 92.952 220.254 93.16V97H219.18V90.922H219.792C219.908 90.922 219.988 90.944 220.032 90.988C220.076 91.032 220.106 91.108 220.122 91.216L220.194 92.14ZM227.373 93.298C227.373 93.05 227.337 92.824 227.265 92.62C227.197 92.412 227.095 92.234 226.959 92.086C226.827 91.934 226.665 91.818 226.473 91.738C226.281 91.654 226.063 91.612 225.819 91.612C225.307 91.612 224.901 91.762 224.601 92.062C224.305 92.358 224.121 92.77 224.049 93.298H227.373ZM228.237 96.148C228.105 96.308 227.947 96.448 227.763 96.568C227.579 96.684 227.381 96.78 227.169 96.856C226.961 96.932 226.745 96.988 226.521 97.024C226.297 97.064 226.075 97.084 225.855 97.084C225.435 97.084 225.047 97.014 224.691 96.874C224.339 96.73 224.033 96.522 223.773 96.25C223.517 95.974 223.317 95.634 223.173 95.23C223.029 94.826 222.957 94.362 222.957 93.838C222.957 93.414 223.021 93.018 223.149 92.65C223.281 92.282 223.469 91.964 223.713 91.696C223.957 91.424 224.255 91.212 224.607 91.06C224.959 90.904 225.355 90.826 225.795 90.826C226.159 90.826 226.495 90.888 226.803 91.012C227.115 91.132 227.383 91.308 227.607 91.54C227.835 91.768 228.013 92.052 228.141 92.392C228.269 92.728 228.333 93.112 228.333 93.544C228.333 93.712 228.315 93.824 228.279 93.88C228.243 93.936 228.175 93.964 228.075 93.964H224.013C224.025 94.348 224.077 94.682 224.169 94.966C224.265 95.25 224.397 95.488 224.565 95.68C224.733 95.868 224.933 96.01 225.165 96.106C225.397 96.198 225.657 96.244 225.945 96.244C226.213 96.244 226.443 96.214 226.635 96.154C226.831 96.09 226.999 96.022 227.139 95.95C227.279 95.878 227.395 95.812 227.487 95.752C227.583 95.688 227.665 95.656 227.733 95.656C227.821 95.656 227.889 95.69 227.937 95.758L228.237 96.148ZM116.821 109.704C116.821 110.348 116.719 110.94 116.515 111.48C116.311 112.016 116.023 112.478 115.651 112.866C115.279 113.254 114.831 113.556 114.307 113.772C113.787 113.984 113.211 114.09 112.579 114.09C111.947 114.09 111.371 113.984 110.851 113.772C110.331 113.556 109.885 113.254 109.513 112.866C109.141 112.478 108.853 112.016 108.649 111.48C108.445 110.94 108.343 110.348 108.343 109.704C108.343 109.06 108.445 108.47 108.649 107.934C108.853 107.394 109.141 106.93 109.513 106.542C109.885 106.15 110.331 105.846 110.851 105.63C111.371 105.414 111.947 105.306 112.579 105.306C113.211 105.306 113.787 105.414 114.307 105.63C114.831 105.846 115.279 106.15 115.651 106.542C116.023 106.93 116.311 107.394 116.515 107.934C116.719 108.47 116.821 109.06 116.821 109.704ZM115.627 109.704C115.627 109.176 115.555 108.702 115.411 108.282C115.267 107.862 115.063 107.508 114.799 107.22C114.535 106.928 114.215 106.704 113.839 106.548C113.463 106.392 113.043 106.314 112.579 106.314C112.119 106.314 111.701 106.392 111.325 106.548C110.949 106.704 110.627 106.928 110.359 107.22C110.095 107.508 109.891 107.862 109.747 108.282C109.603 108.702 109.531 109.176 109.531 109.704C109.531 110.232 109.603 110.706 109.747 111.126C109.891 111.542 110.095 111.896 110.359 112.188C110.627 112.476 110.949 112.698 111.325 112.854C111.701 113.006 112.119 113.082 112.579 113.082C113.043 113.082 113.463 113.006 113.839 112.854C114.215 112.698 114.535 112.476 114.799 112.188C115.063 111.896 115.267 111.542 115.411 111.126C115.555 110.706 115.627 110.232 115.627 109.704ZM119.131 109.14C119.323 108.724 119.559 108.4 119.839 108.168C120.119 107.932 120.461 107.814 120.865 107.814C120.993 107.814 121.115 107.828 121.231 107.856C121.351 107.884 121.457 107.928 121.549 107.988L121.471 108.786C121.447 108.886 121.387 108.936 121.291 108.936C121.235 108.936 121.153 108.924 121.045 108.9C120.937 108.876 120.815 108.864 120.679 108.864C120.487 108.864 120.315 108.892 120.163 108.948C120.015 109.004 119.881 109.088 119.761 109.2C119.645 109.308 119.539 109.444 119.443 109.608C119.351 109.768 119.267 109.952 119.191 110.16V114H118.117V107.922H118.729C118.845 107.922 118.925 107.944 118.969 107.988C119.013 108.032 119.043 108.108 119.059 108.216L119.131 109.14Z" fill="#B5B5B5"/>
<path d="M126.375 112.536C126.571 112.8 126.785 112.986 127.017 113.094C127.253 113.202 127.511 113.256 127.791 113.256C128.363 113.256 128.801 113.054 129.105 112.65C129.409 112.246 129.561 111.644 129.561 110.844C129.561 110.1 129.425 109.554 129.153 109.206C128.885 108.854 128.501 108.678 128.001 108.678C127.653 108.678 127.349 108.758 127.089 108.918C126.833 109.078 126.595 109.304 126.375 109.596V112.536ZM126.375 108.798C126.631 108.502 126.919 108.266 127.239 108.09C127.563 107.914 127.935 107.826 128.355 107.826C128.711 107.826 129.031 107.894 129.315 108.03C129.603 108.166 129.847 108.364 130.047 108.624C130.247 108.88 130.399 109.192 130.503 109.56C130.611 109.928 130.665 110.342 130.665 110.802C130.665 111.294 130.605 111.742 130.485 112.146C130.365 112.55 130.191 112.896 129.963 113.184C129.739 113.468 129.465 113.69 129.141 113.85C128.817 114.006 128.453 114.084 128.049 114.084C127.649 114.084 127.311 114.01 127.035 113.862C126.763 113.71 126.525 113.496 126.321 113.22L126.267 113.772C126.235 113.924 126.143 114 125.991 114H125.301V105.162H126.375V108.798ZM133.03 109.14C133.222 108.724 133.458 108.4 133.738 108.168C134.018 107.932 134.36 107.814 134.764 107.814C134.892 107.814 135.014 107.828 135.13 107.856C135.25 107.884 135.356 107.928 135.448 107.988L135.37 108.786C135.346 108.886 135.286 108.936 135.19 108.936C135.134 108.936 135.052 108.924 134.944 108.9C134.836 108.876 134.714 108.864 134.578 108.864C134.386 108.864 134.214 108.892 134.062 108.948C133.914 109.004 133.78 109.088 133.66 109.2C133.544 109.308 133.438 109.444 133.342 109.608C133.25 109.768 133.166 109.952 133.09 110.16V114H132.016V107.922H132.628C132.744 107.922 132.824 107.944 132.868 107.988C132.912 108.032 132.942 108.108 132.958 108.216L133.03 109.14ZM138.703 107.826C139.147 107.826 139.547 107.9 139.903 108.048C140.259 108.196 140.563 108.406 140.815 108.678C141.067 108.95 141.259 109.28 141.391 109.668C141.527 110.052 141.595 110.482 141.595 110.958C141.595 111.438 141.527 111.87 141.391 112.254C141.259 112.638 141.067 112.966 140.815 113.238C140.563 113.51 140.259 113.72 139.903 113.868C139.547 114.012 139.147 114.084 138.703 114.084C138.255 114.084 137.851 114.012 137.491 113.868C137.135 113.72 136.831 113.51 136.579 113.238C136.327 112.966 136.133 112.638 135.997 112.254C135.865 111.87 135.799 111.438 135.799 110.958C135.799 110.482 135.865 110.052 135.997 109.668C136.133 109.28 136.327 108.95 136.579 108.678C136.831 108.406 137.135 108.196 137.491 108.048C137.851 107.9 138.255 107.826 138.703 107.826ZM138.703 113.25C139.303 113.25 139.751 113.05 140.047 112.65C140.343 112.246 140.491 111.684 140.491 110.964C140.491 110.24 140.343 109.676 140.047 109.272C139.751 108.868 139.303 108.666 138.703 108.666C138.399 108.666 138.133 108.718 137.905 108.822C137.681 108.926 137.493 109.076 137.341 109.272C137.193 109.468 137.081 109.71 137.005 109.998C136.933 110.282 136.897 110.604 136.897 110.964C136.897 111.684 137.045 112.246 137.341 112.65C137.641 113.05 138.095 113.25 138.703 113.25ZM151.238 107.922L149.27 114H148.424C148.32 114 148.248 113.932 148.208 113.796L146.864 109.674C146.832 109.582 146.806 109.49 146.786 109.398C146.766 109.302 146.746 109.208 146.726 109.116C146.706 109.208 146.686 109.302 146.666 109.398C146.646 109.49 146.62 109.584 146.588 109.68L145.22 113.796C145.184 113.932 145.104 114 144.98 114H144.176L142.208 107.922H143.048C143.132 107.922 143.202 107.944 143.258 107.988C143.318 108.032 143.358 108.084 143.378 108.144L144.542 112.056C144.61 112.344 144.664 112.616 144.704 112.872C144.74 112.74 144.776 112.606 144.812 112.47C144.852 112.334 144.894 112.196 144.938 112.056L146.222 108.12C146.242 108.06 146.276 108.01 146.324 107.97C146.376 107.93 146.438 107.91 146.51 107.91H146.978C147.058 107.91 147.124 107.93 147.176 107.97C147.228 108.01 147.264 108.06 147.284 108.12L148.538 112.056C148.582 112.196 148.622 112.334 148.658 112.47C148.694 112.606 148.728 112.74 148.76 112.872C148.78 112.74 148.804 112.608 148.832 112.476C148.864 112.34 148.898 112.2 148.934 112.056L150.122 108.144C150.142 108.08 150.18 108.028 150.236 107.988C150.292 107.944 150.358 107.922 150.434 107.922H151.238ZM155.771 108.924C155.723 109.012 155.649 109.056 155.549 109.056C155.489 109.056 155.421 109.034 155.345 108.99C155.269 108.946 155.175 108.898 155.063 108.846C154.955 108.79 154.825 108.74 154.673 108.696C154.521 108.648 154.341 108.624 154.133 108.624C153.953 108.624 153.791 108.648 153.647 108.696C153.503 108.74 153.379 108.802 153.275 108.882C153.175 108.962 153.097 109.056 153.041 109.164C152.989 109.268 152.963 109.382 152.963 109.506C152.963 109.662 153.007 109.792 153.095 109.896C153.187 110 153.307 110.09 153.455 110.166C153.603 110.242 153.771 110.31 153.959 110.37C154.147 110.426 154.339 110.488 154.535 110.556C154.735 110.62 154.929 110.692 155.117 110.772C155.305 110.852 155.473 110.952 155.621 111.072C155.769 111.192 155.887 111.34 155.975 111.516C156.067 111.688 156.113 111.896 156.113 112.14C156.113 112.42 156.063 112.68 155.963 112.92C155.863 113.156 155.715 113.362 155.519 113.538C155.323 113.71 155.083 113.846 154.799 113.946C154.515 114.046 154.187 114.096 153.815 114.096C153.391 114.096 153.007 114.028 152.663 113.892C152.319 113.752 152.027 113.574 151.787 113.358L152.039 112.95C152.071 112.898 152.109 112.858 152.153 112.83C152.197 112.802 152.253 112.788 152.321 112.788C152.393 112.788 152.469 112.816 152.549 112.872C152.629 112.928 152.725 112.99 152.837 113.058C152.953 113.126 153.093 113.188 153.257 113.244C153.421 113.3 153.625 113.328 153.869 113.328C154.077 113.328 154.259 113.302 154.415 113.25C154.571 113.194 154.701 113.12 154.805 113.028C154.909 112.936 154.985 112.83 155.033 112.71C155.085 112.59 155.111 112.462 155.111 112.326C155.111 112.158 155.065 112.02 154.973 111.912C154.885 111.8 154.767 111.706 154.619 111.63C154.471 111.55 154.301 111.482 154.109 111.426C153.921 111.366 153.727 111.304 153.527 111.24C153.331 111.176 153.137 111.104 152.945 111.024C152.757 110.94 152.589 110.836 152.441 110.712C152.293 110.588 152.173 110.436 152.081 110.256C151.993 110.072 151.949 109.85 151.949 109.59C151.949 109.358 151.997 109.136 152.093 108.924C152.189 108.708 152.329 108.52 152.513 108.36C152.697 108.196 152.923 108.066 153.191 107.97C153.459 107.874 153.765 107.826 154.109 107.826C154.509 107.826 154.867 107.89 155.183 108.018C155.503 108.142 155.779 108.314 156.011 108.534L155.771 108.924ZM161.49 110.298C161.49 110.05 161.454 109.824 161.382 109.62C161.314 109.412 161.212 109.234 161.076 109.086C160.944 108.934 160.782 108.818 160.59 108.738C160.398 108.654 160.18 108.612 159.936 108.612C159.424 108.612 159.018 108.762 158.718 109.062C158.422 109.358 158.238 109.77 158.166 110.298H161.49ZM162.354 113.148C162.222 113.308 162.064 113.448 161.88 113.568C161.696 113.684 161.498 113.78 161.286 113.856C161.078 113.932 160.862 113.988 160.638 114.024C160.414 114.064 160.192 114.084 159.972 114.084C159.552 114.084 159.164 114.014 158.808 113.874C158.456 113.73 158.15 113.522 157.89 113.25C157.634 112.974 157.434 112.634 157.29 112.23C157.146 111.826 157.074 111.362 157.074 110.838C157.074 110.414 157.138 110.018 157.266 109.65C157.398 109.282 157.586 108.964 157.83 108.696C158.074 108.424 158.372 108.212 158.724 108.06C159.076 107.904 159.472 107.826 159.912 107.826C160.276 107.826 160.612 107.888 160.92 108.012C161.232 108.132 161.5 108.308 161.724 108.54C161.952 108.768 162.13 109.052 162.258 109.392C162.386 109.728 162.45 110.112 162.45 110.544C162.45 110.712 162.432 110.824 162.396 110.88C162.36 110.936 162.292 110.964 162.192 110.964H158.13C158.142 111.348 158.194 111.682 158.286 111.966C158.382 112.25 158.514 112.488 158.682 112.68C158.85 112.868 159.05 113.01 159.282 113.106C159.514 113.198 159.774 113.244 160.062 113.244C160.33 113.244 160.56 113.214 160.752 113.154C160.948 113.09 161.116 113.022 161.256 112.95C161.396 112.878 161.512 112.812 161.604 112.752C161.7 112.688 161.782 112.656 161.85 112.656C161.938 112.656 162.006 112.69 162.054 112.758L162.354 113.148ZM167.24 114V108.834L166.568 108.756C166.48 108.736 166.41 108.706 166.358 108.666C166.306 108.622 166.28 108.56 166.28 108.48V108.042H167.24V107.706C167.24 107.334 167.298 106.994 167.414 106.686C167.53 106.374 167.704 106.106 167.936 105.882C168.168 105.658 168.456 105.484 168.8 105.36C169.148 105.236 169.55 105.174 170.006 105.174C170.158 105.174 170.314 105.184 170.474 105.204C170.634 105.224 170.772 105.254 170.888 105.294L170.846 105.852C170.842 105.892 170.826 105.92 170.798 105.936C170.774 105.952 170.74 105.962 170.696 105.966C170.652 105.97 170.596 105.972 170.528 105.972C170.464 105.968 170.39 105.966 170.306 105.966C169.594 105.966 169.078 106.114 168.758 106.41C168.438 106.702 168.278 107.144 168.278 107.736V108.042H171.95V114H170.876V108.816H168.308V114H167.24ZM174.804 105.162V114H173.736V105.162H174.804ZM180.603 110.298C180.603 110.05 180.567 109.824 180.495 109.62C180.427 109.412 180.325 109.234 180.189 109.086C180.057 108.934 179.895 108.818 179.703 108.738C179.511 108.654 179.293 108.612 179.049 108.612C178.537 108.612 178.131 108.762 177.831 109.062C177.535 109.358 177.351 109.77 177.279 110.298H180.603ZM181.467 113.148C181.335 113.308 181.177 113.448 180.993 113.568C180.809 113.684 180.611 113.78 180.399 113.856C180.191 113.932 179.975 113.988 179.751 114.024C179.527 114.064 179.305 114.084 179.085 114.084C178.665 114.084 178.277 114.014 177.921 113.874C177.569 113.73 177.263 113.522 177.003 113.25C176.747 112.974 176.547 112.634 176.403 112.23C176.259 111.826 176.187 111.362 176.187 110.838C176.187 110.414 176.251 110.018 176.379 109.65C176.511 109.282 176.699 108.964 176.943 108.696C177.187 108.424 177.485 108.212 177.837 108.06C178.189 107.904 178.585 107.826 179.025 107.826C179.389 107.826 179.725 107.888 180.033 108.012C180.345 108.132 180.613 108.308 180.837 108.54C181.065 108.768 181.243 109.052 181.371 109.392C181.499 109.728 181.563 110.112 181.563 110.544C181.563 110.712 181.545 110.824 181.509 110.88C181.473 110.936 181.405 110.964 181.305 110.964H177.243C177.255 111.348 177.307 111.682 177.399 111.966C177.495 112.25 177.627 112.488 177.795 112.68C177.963 112.868 178.163 113.01 178.395 113.106C178.627 113.198 178.887 113.244 179.175 113.244C179.443 113.244 179.673 113.214 179.865 113.154C180.061 113.09 180.229 113.022 180.369 112.95C180.509 112.878 180.625 112.812 180.717 112.752C180.813 112.688 180.895 112.656 180.963 112.656C181.051 112.656 181.119 112.69 181.167 112.758L181.467 113.148ZM186.415 108.924C186.367 109.012 186.293 109.056 186.193 109.056C186.133 109.056 186.065 109.034 185.989 108.99C185.913 108.946 185.819 108.898 185.707 108.846C185.599 108.79 185.469 108.74 185.317 108.696C185.165 108.648 184.985 108.624 184.777 108.624C184.597 108.624 184.435 108.648 184.291 108.696C184.147 108.74 184.023 108.802 183.919 108.882C183.819 108.962 183.741 109.056 183.685 109.164C183.633 109.268 183.607 109.382 183.607 109.506C183.607 109.662 183.651 109.792 183.739 109.896C183.831 110 183.951 110.09 184.099 110.166C184.247 110.242 184.415 110.31 184.603 110.37C184.791 110.426 184.983 110.488 185.179 110.556C185.379 110.62 185.573 110.692 185.761 110.772C185.949 110.852 186.117 110.952 186.265 111.072C186.413 111.192 186.531 111.34 186.619 111.516C186.711 111.688 186.757 111.896 186.757 112.14C186.757 112.42 186.707 112.68 186.607 112.92C186.507 113.156 186.359 113.362 186.163 113.538C185.967 113.71 185.727 113.846 185.443 113.946C185.159 114.046 184.831 114.096 184.459 114.096C184.035 114.096 183.651 114.028 183.307 113.892C182.963 113.752 182.671 113.574 182.431 113.358L182.683 112.95C182.715 112.898 182.753 112.858 182.797 112.83C182.841 112.802 182.897 112.788 182.965 112.788C183.037 112.788 183.113 112.816 183.193 112.872C183.273 112.928 183.369 112.99 183.481 113.058C183.597 113.126 183.737 113.188 183.901 113.244C184.065 113.3 184.269 113.328 184.513 113.328C184.721 113.328 184.903 113.302 185.059 113.25C185.215 113.194 185.345 113.12 185.449 113.028C185.553 112.936 185.629 112.83 185.677 112.71C185.729 112.59 185.755 112.462 185.755 112.326C185.755 112.158 185.709 112.02 185.617 111.912C185.529 111.8 185.411 111.706 185.263 111.63C185.115 111.55 184.945 111.482 184.753 111.426C184.565 111.366 184.371 111.304 184.171 111.24C183.975 111.176 183.781 111.104 183.589 111.024C183.401 110.94 183.233 110.836 183.085 110.712C182.937 110.588 182.817 110.436 182.725 110.256C182.637 110.072 182.593 109.85 182.593 109.59C182.593 109.358 182.641 109.136 182.737 108.924C182.833 108.708 182.973 108.52 183.157 108.36C183.341 108.196 183.567 108.066 183.835 107.97C184.103 107.874 184.409 107.826 184.753 107.826C185.153 107.826 185.511 107.89 185.827 108.018C186.147 108.142 186.423 108.314 186.655 108.534L186.415 108.924Z" fill="#1B8BCE"/>
<defs>
<linearGradient id="paint0_linear_401_134" x1="148" y1="44" x2="164.176" y2="89.5882" gradientUnits="userSpaceOnUse">
<stop stop-color="#E7E7E7"/>
<stop offset="1" stop-color="#848484" stop-opacity="0"/>
</linearGradient>
</defs>
</svg>
