<svg width="294" height="202" viewBox="0 0 294 202" fill="none" xmlns="http://www.w3.org/2000/svg">
<rect x="1" y="1" width="292" height="200" rx="2" fill="white" stroke="#DCDCDC" stroke-width="2" stroke-dasharray="5 5"/>
<path d="M163.588 78.7059C163.882 77.8235 164.176 76.9412 164.176 75.7647C164.176 69.2941 158.882 64 152.412 64C148 64 143.882 66.6471 142.118 70.4706C141.235 70.1765 140.059 69.8824 139.176 69.8824C135.059 69.8824 131.824 73.1176 131.824 77.2353C131.824 77.8235 131.824 78.4118 132.118 78.7059C126.824 79.5882 123 83.7059 123 89C123 94.5882 127.706 99.2941 133.294 99.2941H143.588V90.4706H134.765L148 77.2353L161.235 90.4706H152.412V99.2941H162.706C168.294 99.2941 173 94.5882 173 89C173 83.7059 168.882 79.2941 163.588 78.7059Z" fill="url(#paint0_linear_401_505)"/>
<path d="M74.7512 112.704C74.7512 113.348 74.6492 113.934 74.4452 114.462C74.2412 114.99 73.9532 115.442 73.5812 115.818C73.2092 116.194 72.7612 116.486 72.2372 116.694C71.7172 116.898 71.1412 117 70.5092 117H67.2992V108.402H70.5092C71.1412 108.402 71.7172 108.506 72.2372 108.714C72.7612 108.918 73.2092 109.21 73.5812 109.59C73.9532 109.966 74.2412 110.418 74.4452 110.946C74.6492 111.474 74.7512 112.06 74.7512 112.704ZM73.5572 112.704C73.5572 112.176 73.4852 111.704 73.3412 111.288C73.1972 110.872 72.9932 110.52 72.7292 110.232C72.4652 109.944 72.1452 109.724 71.7692 109.572C71.3932 109.42 70.9732 109.344 70.5092 109.344H68.4632V116.058H70.5092C70.9732 116.058 71.3932 115.982 71.7692 115.83C72.1452 115.678 72.4652 115.46 72.7292 115.176C72.9932 114.888 73.1972 114.536 73.3412 114.12C73.4852 113.704 73.5572 113.232 73.5572 112.704ZM77.0612 112.14C77.2532 111.724 77.4892 111.4 77.7692 111.168C78.0492 110.932 78.3912 110.814 78.7952 110.814C78.9232 110.814 79.0452 110.828 79.1612 110.856C79.2812 110.884 79.3872 110.928 79.4792 110.988L79.4012 111.786C79.3772 111.886 79.3172 111.936 79.2212 111.936C79.1652 111.936 79.0832 111.924 78.9752 111.9C78.8672 111.876 78.7452 111.864 78.6092 111.864C78.4172 111.864 78.2452 111.892 78.0932 111.948C77.9452 112.004 77.8112 112.088 77.6912 112.2C77.5752 112.308 77.4692 112.444 77.3732 112.608C77.2812 112.768 77.1972 112.952 77.1212 113.16V117H76.0472V110.922H76.6592C76.7752 110.922 76.8552 110.944 76.8992 110.988C76.9432 111.032 76.9732 111.108 76.9892 111.216L77.0612 112.14ZM83.6185 114.264C83.1265 114.28 82.7065 114.32 82.3585 114.384C82.0145 114.444 81.7325 114.524 81.5125 114.624C81.2965 114.724 81.1385 114.842 81.0385 114.978C80.9425 115.114 80.8945 115.266 80.8945 115.434C80.8945 115.594 80.9205 115.732 80.9725 115.848C81.0245 115.964 81.0945 116.06 81.1825 116.136C81.2745 116.208 81.3805 116.262 81.5005 116.298C81.6245 116.33 81.7565 116.346 81.8965 116.346C82.0845 116.346 82.2565 116.328 82.4125 116.292C82.5685 116.252 82.7145 116.196 82.8505 116.124C82.9905 116.052 83.1225 115.966 83.2465 115.866C83.3745 115.766 83.4985 115.652 83.6185 115.524V114.264ZM80.1685 111.78C80.5045 111.456 80.8665 111.214 81.2545 111.054C81.6425 110.894 82.0725 110.814 82.5445 110.814C82.8845 110.814 83.1865 110.87 83.4505 110.982C83.7145 111.094 83.9365 111.25 84.1165 111.45C84.2965 111.65 84.4325 111.892 84.5245 112.176C84.6165 112.46 84.6625 112.772 84.6625 113.112V117H84.1885C84.0845 117 84.0045 116.984 83.9485 116.952C83.8925 116.916 83.8485 116.848 83.8165 116.748L83.6965 116.172C83.5365 116.32 83.3805 116.452 83.2285 116.568C83.0765 116.68 82.9165 116.776 82.7485 116.856C82.5805 116.932 82.4005 116.99 82.2085 117.03C82.0205 117.074 81.8105 117.096 81.5785 117.096C81.3425 117.096 81.1205 117.064 80.9125 117C80.7045 116.932 80.5225 116.832 80.3665 116.7C80.2145 116.568 80.0925 116.402 80.0005 116.202C79.9125 115.998 79.8685 115.758 79.8685 115.482C79.8685 115.242 79.9345 115.012 80.0665 114.792C80.1985 114.568 80.4125 114.37 80.7085 114.198C81.0045 114.026 81.3905 113.886 81.8665 113.778C82.3425 113.666 82.9265 113.602 83.6185 113.586V113.112C83.6185 112.64 83.5165 112.284 83.3125 112.044C83.1085 111.8 82.8105 111.678 82.4185 111.678C82.1545 111.678 81.9325 111.712 81.7525 111.78C81.5765 111.844 81.4225 111.918 81.2905 112.002C81.1625 112.082 81.0505 112.156 80.9545 112.224C80.8625 112.288 80.7705 112.32 80.6785 112.32C80.6065 112.32 80.5445 112.302 80.4925 112.266C80.4405 112.226 80.3965 112.178 80.3605 112.122L80.1685 111.78ZM88.4074 114.03C88.6234 114.03 88.8134 114 88.9774 113.94C89.1414 113.88 89.2794 113.796 89.3914 113.688C89.5034 113.58 89.5874 113.452 89.6434 113.304C89.6994 113.152 89.7274 112.986 89.7274 112.806C89.7274 112.434 89.6134 112.138 89.3854 111.918C89.1614 111.698 88.8354 111.588 88.4074 111.588C87.9754 111.588 87.6454 111.698 87.4174 111.918C87.1934 112.138 87.0814 112.434 87.0814 112.806C87.0814 112.986 87.1094 113.152 87.1654 113.304C87.2254 113.452 87.3114 113.58 87.4234 113.688C87.5354 113.796 87.6734 113.88 87.8374 113.94C88.0014 114 88.1914 114.03 88.4074 114.03ZM90.3334 117.33C90.3334 117.182 90.2914 117.062 90.2074 116.97C90.1234 116.878 90.0094 116.806 89.8654 116.754C89.7254 116.702 89.5614 116.666 89.3734 116.646C89.1854 116.622 88.9854 116.604 88.7734 116.592C88.5654 116.58 88.3534 116.568 88.1374 116.556C87.9214 116.544 87.7134 116.524 87.5134 116.496C87.2894 116.6 87.1054 116.732 86.9614 116.892C86.8214 117.048 86.7514 117.232 86.7514 117.444C86.7514 117.58 86.7854 117.706 86.8534 117.822C86.9254 117.942 87.0334 118.044 87.1774 118.128C87.3214 118.216 87.5014 118.284 87.7174 118.332C87.9374 118.384 88.1954 118.41 88.4914 118.41C88.7794 118.41 89.0374 118.384 89.2654 118.332C89.4934 118.28 89.6854 118.206 89.8414 118.11C90.0014 118.014 90.1234 117.9 90.2074 117.768C90.2914 117.636 90.3334 117.49 90.3334 117.33ZM91.4194 111.162V111.558C91.4194 111.69 91.3354 111.774 91.1674 111.81L90.4774 111.9C90.6134 112.164 90.6814 112.456 90.6814 112.776C90.6814 113.072 90.6234 113.342 90.5074 113.586C90.3954 113.826 90.2394 114.032 90.0394 114.204C89.8394 114.376 89.5994 114.508 89.3194 114.6C89.0394 114.692 88.7354 114.738 88.4074 114.738C88.1234 114.738 87.8554 114.704 87.6034 114.636C87.4754 114.716 87.3774 114.802 87.3094 114.894C87.2414 114.982 87.2074 115.072 87.2074 115.164C87.2074 115.308 87.2654 115.418 87.3814 115.494C87.5014 115.566 87.6574 115.618 87.8494 115.65C88.0414 115.682 88.2594 115.702 88.5034 115.71C88.7514 115.718 89.0034 115.732 89.2594 115.752C89.5194 115.768 89.7714 115.798 90.0154 115.842C90.2634 115.886 90.4834 115.958 90.6754 116.058C90.8674 116.158 91.0214 116.296 91.1374 116.472C91.2574 116.648 91.3174 116.876 91.3174 117.156C91.3174 117.416 91.2514 117.668 91.1194 117.912C90.9914 118.156 90.8054 118.372 90.5614 118.56C90.3174 118.752 90.0174 118.904 89.6614 119.016C89.3094 119.132 88.9114 119.19 88.4674 119.19C88.0234 119.19 87.6354 119.146 87.3034 119.058C86.9714 118.97 86.6954 118.852 86.4754 118.704C86.2554 118.556 86.0894 118.384 85.9774 118.188C85.8694 117.996 85.8154 117.794 85.8154 117.582C85.8154 117.282 85.9094 117.028 86.0974 116.82C86.2854 116.612 86.5434 116.446 86.8714 116.322C86.6914 116.242 86.5474 116.136 86.4394 116.004C86.3354 115.868 86.2834 115.686 86.2834 115.458C86.2834 115.37 86.2994 115.28 86.3314 115.188C86.3634 115.092 86.4114 114.998 86.4754 114.906C86.5434 114.81 86.6254 114.72 86.7214 114.636C86.8174 114.552 86.9294 114.478 87.0574 114.414C86.7574 114.246 86.5234 114.024 86.3554 113.748C86.1874 113.468 86.1034 113.144 86.1034 112.776C86.1034 112.48 86.1594 112.212 86.2714 111.972C86.3874 111.728 86.5474 111.522 86.7514 111.354C86.9554 111.182 87.1974 111.05 87.4774 110.958C87.7614 110.866 88.0714 110.82 88.4074 110.82C88.6714 110.82 88.9174 110.85 89.1454 110.91C89.3734 110.966 89.5814 111.05 89.7694 111.162H91.4194ZM98.888 114.264C98.396 114.28 97.976 114.32 97.628 114.384C97.284 114.444 97.002 114.524 96.782 114.624C96.566 114.724 96.408 114.842 96.308 114.978C96.212 115.114 96.164 115.266 96.164 115.434C96.164 115.594 96.19 115.732 96.242 115.848C96.294 115.964 96.364 116.06 96.452 116.136C96.544 116.208 96.65 116.262 96.77 116.298C96.894 116.33 97.026 116.346 97.166 116.346C97.354 116.346 97.526 116.328 97.682 116.292C97.838 116.252 97.984 116.196 98.12 116.124C98.26 116.052 98.392 115.966 98.516 115.866C98.644 115.766 98.768 115.652 98.888 115.524V114.264ZM95.438 111.78C95.774 111.456 96.136 111.214 96.524 111.054C96.912 110.894 97.342 110.814 97.814 110.814C98.154 110.814 98.456 110.87 98.72 110.982C98.984 111.094 99.206 111.25 99.386 111.45C99.566 111.65 99.702 111.892 99.794 112.176C99.886 112.46 99.932 112.772 99.932 113.112V117H99.458C99.354 117 99.274 116.984 99.218 116.952C99.162 116.916 99.118 116.848 99.086 116.748L98.966 116.172C98.806 116.32 98.65 116.452 98.498 116.568C98.346 116.68 98.186 116.776 98.018 116.856C97.85 116.932 97.67 116.99 97.478 117.03C97.29 117.074 97.08 117.096 96.848 117.096C96.612 117.096 96.39 117.064 96.182 117C95.974 116.932 95.792 116.832 95.636 116.7C95.484 116.568 95.362 116.402 95.27 116.202C95.182 115.998 95.138 115.758 95.138 115.482C95.138 115.242 95.204 115.012 95.336 114.792C95.468 114.568 95.682 114.37 95.978 114.198C96.274 114.026 96.66 113.886 97.136 113.778C97.612 113.666 98.196 113.602 98.888 113.586V113.112C98.888 112.64 98.786 112.284 98.582 112.044C98.378 111.8 98.08 111.678 97.688 111.678C97.424 111.678 97.202 111.712 97.022 111.78C96.846 111.844 96.692 111.918 96.56 112.002C96.432 112.082 96.32 112.156 96.224 112.224C96.132 112.288 96.04 112.32 95.948 112.32C95.876 112.32 95.814 112.302 95.762 112.266C95.71 112.226 95.666 112.178 95.63 112.122L95.438 111.78ZM102.567 111.804C102.699 111.656 102.839 111.522 102.987 111.402C103.135 111.282 103.291 111.18 103.455 111.096C103.623 111.008 103.799 110.942 103.983 110.898C104.171 110.85 104.373 110.826 104.589 110.826C104.921 110.826 105.213 110.882 105.465 110.994C105.721 111.102 105.933 111.258 106.101 111.462C106.273 111.662 106.403 111.904 106.491 112.188C106.579 112.472 106.623 112.786 106.623 113.13V117H105.549V113.13C105.549 112.67 105.443 112.314 105.231 112.062C105.023 111.806 104.705 111.678 104.277 111.678C103.961 111.678 103.665 111.754 103.389 111.906C103.117 112.058 102.865 112.264 102.633 112.524V117H101.559V110.922H102.201C102.353 110.922 102.447 110.996 102.483 111.144L102.567 111.804ZM112.21 112.368C112.01 112.1 111.794 111.914 111.562 111.81C111.33 111.702 111.07 111.648 110.782 111.648C110.218 111.648 109.784 111.85 109.48 112.254C109.176 112.658 109.024 113.234 109.024 113.982C109.024 114.378 109.058 114.718 109.126 115.002C109.194 115.282 109.294 115.514 109.426 115.698C109.558 115.878 109.72 116.01 109.912 116.094C110.104 116.178 110.322 116.22 110.566 116.22C110.918 116.22 111.224 116.14 111.484 115.98C111.748 115.82 111.99 115.594 112.21 115.302V112.368ZM113.278 108.162V117H112.642C112.49 117 112.394 116.926 112.354 116.778L112.258 116.04C111.998 116.352 111.702 116.604 111.37 116.796C111.038 116.988 110.654 117.084 110.218 117.084C109.87 117.084 109.554 117.018 109.27 116.886C108.986 116.75 108.744 116.552 108.544 116.292C108.344 116.032 108.19 115.708 108.082 115.32C107.974 114.932 107.92 114.486 107.92 113.982C107.92 113.534 107.98 113.118 108.1 112.734C108.22 112.346 108.392 112.01 108.616 111.726C108.84 111.442 109.114 111.22 109.438 111.06C109.766 110.896 110.134 110.814 110.542 110.814C110.914 110.814 111.232 110.878 111.496 111.006C111.764 111.13 112.002 111.304 112.21 111.528V108.162H113.278ZM121.995 112.368C121.795 112.1 121.579 111.914 121.347 111.81C121.115 111.702 120.855 111.648 120.567 111.648C120.003 111.648 119.569 111.85 119.265 112.254C118.961 112.658 118.809 113.234 118.809 113.982C118.809 114.378 118.843 114.718 118.911 115.002C118.979 115.282 119.079 115.514 119.211 115.698C119.343 115.878 119.505 116.01 119.697 116.094C119.889 116.178 120.107 116.22 120.351 116.22C120.703 116.22 121.009 116.14 121.269 115.98C121.533 115.82 121.775 115.594 121.995 115.302V112.368ZM123.063 108.162V117H122.427C122.275 117 122.179 116.926 122.139 116.778L122.043 116.04C121.783 116.352 121.487 116.604 121.155 116.796C120.823 116.988 120.439 117.084 120.003 117.084C119.655 117.084 119.339 117.018 119.055 116.886C118.771 116.75 118.529 116.552 118.329 116.292C118.129 116.032 117.975 115.708 117.867 115.32C117.759 114.932 117.705 114.486 117.705 113.982C117.705 113.534 117.765 113.118 117.885 112.734C118.005 112.346 118.177 112.01 118.401 111.726C118.625 111.442 118.899 111.22 119.223 111.06C119.551 110.896 119.919 110.814 120.327 110.814C120.699 110.814 121.017 110.878 121.281 111.006C121.549 111.13 121.787 111.304 121.995 111.528V108.162H123.063ZM125.764 112.14C125.956 111.724 126.192 111.4 126.472 111.168C126.752 110.932 127.094 110.814 127.498 110.814C127.626 110.814 127.748 110.828 127.864 110.856C127.984 110.884 128.09 110.928 128.182 110.988L128.104 111.786C128.08 111.886 128.02 111.936 127.924 111.936C127.868 111.936 127.786 111.924 127.678 111.9C127.57 111.876 127.448 111.864 127.312 111.864C127.12 111.864 126.948 111.892 126.796 111.948C126.648 112.004 126.514 112.088 126.394 112.2C126.278 112.308 126.172 112.444 126.076 112.608C125.984 112.768 125.9 112.952 125.824 113.16V117H124.75V110.922H125.362C125.478 110.922 125.558 110.944 125.602 110.988C125.646 111.032 125.676 111.108 125.692 111.216L125.764 112.14ZM131.437 110.826C131.881 110.826 132.281 110.9 132.637 111.048C132.993 111.196 133.297 111.406 133.549 111.678C133.801 111.95 133.993 112.28 134.125 112.668C134.261 113.052 134.329 113.482 134.329 113.958C134.329 114.438 134.261 114.87 134.125 115.254C133.993 115.638 133.801 115.966 133.549 116.238C133.297 116.51 132.993 116.72 132.637 116.868C132.281 117.012 131.881 117.084 131.437 117.084C130.989 117.084 130.585 117.012 130.225 116.868C129.869 116.72 129.565 116.51 129.313 116.238C129.061 115.966 128.867 115.638 128.731 115.254C128.599 114.87 128.533 114.438 128.533 113.958C128.533 113.482 128.599 113.052 128.731 112.668C128.867 112.28 129.061 111.95 129.313 111.678C129.565 111.406 129.869 111.196 130.225 111.048C130.585 110.9 130.989 110.826 131.437 110.826ZM131.437 116.25C132.037 116.25 132.485 116.05 132.781 115.65C133.077 115.246 133.225 114.684 133.225 113.964C133.225 113.24 133.077 112.676 132.781 112.272C132.485 111.868 132.037 111.666 131.437 111.666C131.133 111.666 130.867 111.718 130.639 111.822C130.415 111.926 130.227 112.076 130.075 112.272C129.927 112.468 129.815 112.71 129.739 112.998C129.667 113.282 129.631 113.604 129.631 113.964C129.631 114.684 129.779 115.246 130.075 115.65C130.375 116.05 130.829 116.25 131.437 116.25ZM136.758 115.536C136.954 115.8 137.168 115.986 137.4 116.094C137.632 116.202 137.892 116.256 138.18 116.256C138.748 116.256 139.184 116.054 139.488 115.65C139.792 115.246 139.944 114.67 139.944 113.922C139.944 113.526 139.908 113.186 139.836 112.902C139.768 112.618 139.668 112.386 139.536 112.206C139.404 112.022 139.242 111.888 139.05 111.804C138.858 111.72 138.64 111.678 138.396 111.678C138.048 111.678 137.742 111.758 137.478 111.918C137.218 112.078 136.978 112.304 136.758 112.596V115.536ZM136.704 111.864C136.96 111.548 137.256 111.294 137.592 111.102C137.928 110.91 138.312 110.814 138.744 110.814C139.096 110.814 139.414 110.882 139.698 111.018C139.982 111.15 140.224 111.348 140.424 111.612C140.624 111.872 140.778 112.196 140.886 112.584C140.994 112.972 141.048 113.418 141.048 113.922C141.048 114.37 140.988 114.788 140.868 115.176C140.748 115.56 140.574 115.894 140.346 116.178C140.122 116.458 139.846 116.68 139.518 116.844C139.194 117.004 138.828 117.084 138.42 117.084C138.048 117.084 137.728 117.022 137.46 116.898C137.196 116.77 136.962 116.594 136.758 116.37V119.058H135.684V110.922H136.326C136.478 110.922 136.572 110.996 136.608 111.144L136.704 111.864ZM150.42 110.922L147.03 118.794C146.994 118.874 146.948 118.938 146.892 118.986C146.84 119.034 146.758 119.058 146.646 119.058H145.854L146.964 116.646L144.456 110.922H145.38C145.472 110.922 145.544 110.946 145.596 110.994C145.652 111.038 145.69 111.088 145.71 111.144L147.336 114.972C147.4 115.14 147.454 115.316 147.498 115.5C147.554 115.312 147.614 115.134 147.678 114.966L149.256 111.144C149.28 111.08 149.32 111.028 149.376 110.988C149.436 110.944 149.502 110.922 149.574 110.922H150.42ZM153.762 110.826C154.206 110.826 154.606 110.9 154.962 111.048C155.318 111.196 155.622 111.406 155.874 111.678C156.126 111.95 156.318 112.28 156.45 112.668C156.586 113.052 156.654 113.482 156.654 113.958C156.654 114.438 156.586 114.87 156.45 115.254C156.318 115.638 156.126 115.966 155.874 116.238C155.622 116.51 155.318 116.72 154.962 116.868C154.606 117.012 154.206 117.084 153.762 117.084C153.314 117.084 152.91 117.012 152.55 116.868C152.194 116.72 151.89 116.51 151.638 116.238C151.386 115.966 151.192 115.638 151.056 115.254C150.924 114.87 150.858 114.438 150.858 113.958C150.858 113.482 150.924 113.052 151.056 112.668C151.192 112.28 151.386 111.95 151.638 111.678C151.89 111.406 152.194 111.196 152.55 111.048C152.91 110.9 153.314 110.826 153.762 110.826ZM153.762 116.25C154.362 116.25 154.81 116.05 155.106 115.65C155.402 115.246 155.55 114.684 155.55 113.964C155.55 113.24 155.402 112.676 155.106 112.272C154.81 111.868 154.362 111.666 153.762 111.666C153.458 111.666 153.192 111.718 152.964 111.822C152.74 111.926 152.552 112.076 152.4 112.272C152.252 112.468 152.14 112.71 152.064 112.998C151.992 113.282 151.956 113.604 151.956 113.964C151.956 114.684 152.104 115.246 152.4 115.65C152.7 116.05 153.154 116.25 153.762 116.25ZM163.006 110.922V117H162.37C162.218 117 162.122 116.926 162.082 116.778L161.998 116.124C161.734 116.416 161.438 116.652 161.11 116.832C160.782 117.008 160.406 117.096 159.982 117.096C159.65 117.096 159.356 117.042 159.1 116.934C158.848 116.822 158.636 116.666 158.464 116.466C158.292 116.266 158.162 116.024 158.074 115.74C157.99 115.456 157.948 115.142 157.948 114.798V110.922H159.016V114.798C159.016 115.258 159.12 115.614 159.328 115.866C159.54 116.118 159.862 116.244 160.294 116.244C160.61 116.244 160.904 116.17 161.176 116.022C161.452 115.87 161.706 115.662 161.938 115.398V110.922H163.006ZM165.714 112.14C165.906 111.724 166.142 111.4 166.422 111.168C166.702 110.932 167.044 110.814 167.448 110.814C167.576 110.814 167.698 110.828 167.814 110.856C167.934 110.884 168.04 110.928 168.132 110.988L168.054 111.786C168.03 111.886 167.97 111.936 167.874 111.936C167.818 111.936 167.736 111.924 167.628 111.9C167.52 111.876 167.398 111.864 167.262 111.864C167.07 111.864 166.898 111.892 166.746 111.948C166.598 112.004 166.464 112.088 166.344 112.2C166.228 112.308 166.122 112.444 166.026 112.608C165.934 112.768 165.85 112.952 165.774 113.16V117H164.7V110.922H165.312C165.428 110.922 165.508 110.944 165.552 110.988C165.596 111.032 165.626 111.108 165.642 111.216L165.714 112.14ZM173.011 110.922V117H171.943V110.922H173.011ZM173.239 109.014C173.239 109.118 173.217 109.216 173.173 109.308C173.133 109.396 173.077 109.476 173.005 109.548C172.937 109.616 172.855 109.67 172.759 109.71C172.667 109.75 172.569 109.77 172.465 109.77C172.361 109.77 172.263 109.75 172.171 109.71C172.083 109.67 172.005 109.616 171.937 109.548C171.869 109.476 171.815 109.396 171.775 109.308C171.735 109.216 171.715 109.118 171.715 109.014C171.715 108.91 171.735 108.812 171.775 108.72C171.815 108.624 171.869 108.542 171.937 108.474C172.005 108.402 172.083 108.346 172.171 108.306C172.263 108.266 172.361 108.246 172.465 108.246C172.569 108.246 172.667 108.266 172.759 108.306C172.855 108.346 172.937 108.402 173.005 108.474C173.077 108.542 173.133 108.624 173.173 108.72C173.217 108.812 173.239 108.91 173.239 109.014ZM174.766 117V110.922H175.408C175.56 110.922 175.654 110.996 175.69 111.144L175.768 111.768C175.992 111.492 176.244 111.266 176.524 111.09C176.804 110.914 177.128 110.826 177.496 110.826C177.904 110.826 178.234 110.94 178.486 111.168C178.742 111.396 178.926 111.704 179.038 112.092C179.126 111.872 179.238 111.682 179.374 111.522C179.514 111.362 179.67 111.23 179.842 111.126C180.014 111.022 180.196 110.946 180.388 110.898C180.584 110.85 180.782 110.826 180.982 110.826C181.302 110.826 181.586 110.878 181.834 110.982C182.086 111.082 182.298 111.23 182.47 111.426C182.646 111.622 182.78 111.864 182.872 112.152C182.964 112.436 183.01 112.762 183.01 113.13V117H181.936V113.13C181.936 112.654 181.832 112.294 181.624 112.05C181.416 111.802 181.116 111.678 180.724 111.678C180.548 111.678 180.38 111.71 180.22 111.774C180.064 111.834 179.926 111.924 179.806 112.044C179.686 112.164 179.59 112.316 179.518 112.5C179.45 112.68 179.416 112.89 179.416 113.13V117H178.342V113.13C178.342 112.642 178.244 112.278 178.048 112.038C177.852 111.798 177.566 111.678 177.19 111.678C176.926 111.678 176.682 111.75 176.458 111.894C176.234 112.034 176.028 112.226 175.84 112.47V117H174.766ZM187.927 114.264C187.435 114.28 187.015 114.32 186.667 114.384C186.323 114.444 186.041 114.524 185.821 114.624C185.605 114.724 185.447 114.842 185.347 114.978C185.251 115.114 185.203 115.266 185.203 115.434C185.203 115.594 185.229 115.732 185.281 115.848C185.333 115.964 185.403 116.06 185.491 116.136C185.583 116.208 185.689 116.262 185.809 116.298C185.933 116.33 186.065 116.346 186.205 116.346C186.393 116.346 186.565 116.328 186.721 116.292C186.877 116.252 187.023 116.196 187.159 116.124C187.299 116.052 187.431 115.966 187.555 115.866C187.683 115.766 187.807 115.652 187.927 115.524V114.264ZM184.477 111.78C184.813 111.456 185.175 111.214 185.563 111.054C185.951 110.894 186.381 110.814 186.853 110.814C187.193 110.814 187.495 110.87 187.759 110.982C188.023 111.094 188.245 111.25 188.425 111.45C188.605 111.65 188.741 111.892 188.833 112.176C188.925 112.46 188.971 112.772 188.971 113.112V117H188.497C188.393 117 188.313 116.984 188.257 116.952C188.201 116.916 188.157 116.848 188.125 116.748L188.005 116.172C187.845 116.32 187.689 116.452 187.537 116.568C187.385 116.68 187.225 116.776 187.057 116.856C186.889 116.932 186.709 116.99 186.517 117.03C186.329 117.074 186.119 117.096 185.887 117.096C185.651 117.096 185.429 117.064 185.221 117C185.013 116.932 184.831 116.832 184.675 116.7C184.523 116.568 184.401 116.402 184.309 116.202C184.221 115.998 184.177 115.758 184.177 115.482C184.177 115.242 184.243 115.012 184.375 114.792C184.507 114.568 184.721 114.37 185.017 114.198C185.313 114.026 185.699 113.886 186.175 113.778C186.651 113.666 187.235 113.602 187.927 113.586V113.112C187.927 112.64 187.825 112.284 187.621 112.044C187.417 111.8 187.119 111.678 186.727 111.678C186.463 111.678 186.241 111.712 186.061 111.78C185.885 111.844 185.731 111.918 185.599 112.002C185.471 112.082 185.359 112.156 185.263 112.224C185.171 112.288 185.079 112.32 184.987 112.32C184.915 112.32 184.853 112.302 184.801 112.266C184.749 112.226 184.705 112.178 184.669 112.122L184.477 111.78ZM192.716 114.03C192.932 114.03 193.122 114 193.286 113.94C193.45 113.88 193.588 113.796 193.7 113.688C193.812 113.58 193.896 113.452 193.952 113.304C194.008 113.152 194.036 112.986 194.036 112.806C194.036 112.434 193.922 112.138 193.694 111.918C193.47 111.698 193.144 111.588 192.716 111.588C192.284 111.588 191.954 111.698 191.726 111.918C191.502 112.138 191.39 112.434 191.39 112.806C191.39 112.986 191.418 113.152 191.474 113.304C191.534 113.452 191.62 113.58 191.732 113.688C191.844 113.796 191.982 113.88 192.146 113.94C192.31 114 192.5 114.03 192.716 114.03ZM194.642 117.33C194.642 117.182 194.6 117.062 194.516 116.97C194.432 116.878 194.318 116.806 194.174 116.754C194.034 116.702 193.87 116.666 193.682 116.646C193.494 116.622 193.294 116.604 193.082 116.592C192.874 116.58 192.662 116.568 192.446 116.556C192.23 116.544 192.022 116.524 191.822 116.496C191.598 116.6 191.414 116.732 191.27 116.892C191.13 117.048 191.06 117.232 191.06 117.444C191.06 117.58 191.094 117.706 191.162 117.822C191.234 117.942 191.342 118.044 191.486 118.128C191.63 118.216 191.81 118.284 192.026 118.332C192.246 118.384 192.504 118.41 192.8 118.41C193.088 118.41 193.346 118.384 193.574 118.332C193.802 118.28 193.994 118.206 194.15 118.11C194.31 118.014 194.432 117.9 194.516 117.768C194.6 117.636 194.642 117.49 194.642 117.33ZM195.728 111.162V111.558C195.728 111.69 195.644 111.774 195.476 111.81L194.786 111.9C194.922 112.164 194.99 112.456 194.99 112.776C194.99 113.072 194.932 113.342 194.816 113.586C194.704 113.826 194.548 114.032 194.348 114.204C194.148 114.376 193.908 114.508 193.628 114.6C193.348 114.692 193.044 114.738 192.716 114.738C192.432 114.738 192.164 114.704 191.912 114.636C191.784 114.716 191.686 114.802 191.618 114.894C191.55 114.982 191.516 115.072 191.516 115.164C191.516 115.308 191.574 115.418 191.69 115.494C191.81 115.566 191.966 115.618 192.158 115.65C192.35 115.682 192.568 115.702 192.812 115.71C193.06 115.718 193.312 115.732 193.568 115.752C193.828 115.768 194.08 115.798 194.324 115.842C194.572 115.886 194.792 115.958 194.984 116.058C195.176 116.158 195.33 116.296 195.446 116.472C195.566 116.648 195.626 116.876 195.626 117.156C195.626 117.416 195.56 117.668 195.428 117.912C195.3 118.156 195.114 118.372 194.87 118.56C194.626 118.752 194.326 118.904 193.97 119.016C193.618 119.132 193.22 119.19 192.776 119.19C192.332 119.19 191.944 119.146 191.612 119.058C191.28 118.97 191.004 118.852 190.784 118.704C190.564 118.556 190.398 118.384 190.286 118.188C190.178 117.996 190.124 117.794 190.124 117.582C190.124 117.282 190.218 117.028 190.406 116.82C190.594 116.612 190.852 116.446 191.18 116.322C191 116.242 190.856 116.136 190.748 116.004C190.644 115.868 190.592 115.686 190.592 115.458C190.592 115.37 190.608 115.28 190.64 115.188C190.672 115.092 190.72 114.998 190.784 114.906C190.852 114.81 190.934 114.72 191.03 114.636C191.126 114.552 191.238 114.478 191.366 114.414C191.066 114.246 190.832 114.024 190.664 113.748C190.496 113.468 190.412 113.144 190.412 112.776C190.412 112.48 190.468 112.212 190.58 111.972C190.696 111.728 190.856 111.522 191.06 111.354C191.264 111.182 191.506 111.05 191.786 110.958C192.07 110.866 192.38 110.82 192.716 110.82C192.98 110.82 193.226 110.85 193.454 110.91C193.682 110.966 193.89 111.05 194.078 111.162H195.728ZM200.807 113.298C200.807 113.05 200.771 112.824 200.699 112.62C200.631 112.412 200.529 112.234 200.393 112.086C200.261 111.934 200.099 111.818 199.907 111.738C199.715 111.654 199.497 111.612 199.253 111.612C198.741 111.612 198.335 111.762 198.035 112.062C197.739 112.358 197.555 112.77 197.483 113.298H200.807ZM201.671 116.148C201.539 116.308 201.381 116.448 201.197 116.568C201.013 116.684 200.815 116.78 200.603 116.856C200.395 116.932 200.179 116.988 199.955 117.024C199.731 117.064 199.509 117.084 199.289 117.084C198.869 117.084 198.481 117.014 198.125 116.874C197.773 116.73 197.467 116.522 197.207 116.25C196.951 115.974 196.751 115.634 196.607 115.23C196.463 114.826 196.391 114.362 196.391 113.838C196.391 113.414 196.455 113.018 196.583 112.65C196.715 112.282 196.903 111.964 197.147 111.696C197.391 111.424 197.689 111.212 198.041 111.06C198.393 110.904 198.789 110.826 199.229 110.826C199.593 110.826 199.929 110.888 200.237 111.012C200.549 111.132 200.817 111.308 201.041 111.54C201.269 111.768 201.447 112.052 201.575 112.392C201.703 112.728 201.767 113.112 201.767 113.544C201.767 113.712 201.749 113.824 201.713 113.88C201.677 113.936 201.609 113.964 201.509 113.964H197.447C197.459 114.348 197.511 114.682 197.603 114.966C197.699 115.25 197.831 115.488 197.999 115.68C198.167 115.868 198.367 116.01 198.599 116.106C198.831 116.198 199.091 116.244 199.379 116.244C199.647 116.244 199.877 116.214 200.069 116.154C200.265 116.09 200.433 116.022 200.573 115.95C200.713 115.878 200.829 115.812 200.921 115.752C201.017 115.688 201.099 115.656 201.167 115.656C201.255 115.656 201.323 115.69 201.371 115.758L201.671 116.148ZM207.223 111.732C207.483 111.456 207.771 111.236 208.087 111.072C208.403 110.908 208.767 110.826 209.179 110.826C209.511 110.826 209.803 110.882 210.055 110.994C210.311 111.102 210.523 111.258 210.691 111.462C210.863 111.662 210.993 111.904 211.081 112.188C211.169 112.472 211.213 112.786 211.213 113.13V117H210.139V113.13C210.139 112.67 210.033 112.314 209.821 112.062C209.613 111.806 209.295 111.678 208.867 111.678C208.551 111.678 208.255 111.754 207.979 111.906C207.707 112.058 207.455 112.264 207.223 112.524V117H206.149V108.162H207.223V111.732ZM216.908 113.298C216.908 113.05 216.872 112.824 216.8 112.62C216.732 112.412 216.63 112.234 216.494 112.086C216.362 111.934 216.2 111.818 216.008 111.738C215.816 111.654 215.598 111.612 215.354 111.612C214.842 111.612 214.436 111.762 214.136 112.062C213.84 112.358 213.656 112.77 213.584 113.298H216.908ZM217.772 116.148C217.64 116.308 217.482 116.448 217.298 116.568C217.114 116.684 216.916 116.78 216.704 116.856C216.496 116.932 216.28 116.988 216.056 117.024C215.832 117.064 215.61 117.084 215.39 117.084C214.97 117.084 214.582 117.014 214.226 116.874C213.874 116.73 213.568 116.522 213.308 116.25C213.052 115.974 212.852 115.634 212.708 115.23C212.564 114.826 212.492 114.362 212.492 113.838C212.492 113.414 212.556 113.018 212.684 112.65C212.816 112.282 213.004 111.964 213.248 111.696C213.492 111.424 213.79 111.212 214.142 111.06C214.494 110.904 214.89 110.826 215.33 110.826C215.694 110.826 216.03 110.888 216.338 111.012C216.65 111.132 216.918 111.308 217.142 111.54C217.37 111.768 217.548 112.052 217.676 112.392C217.804 112.728 217.868 113.112 217.868 113.544C217.868 113.712 217.85 113.824 217.814 113.88C217.778 113.936 217.71 113.964 217.61 113.964H213.548C213.56 114.348 213.612 114.682 213.704 114.966C213.8 115.25 213.932 115.488 214.1 115.68C214.268 115.868 214.468 116.01 214.7 116.106C214.932 116.198 215.192 116.244 215.48 116.244C215.748 116.244 215.978 116.214 216.17 116.154C216.366 116.09 216.534 116.022 216.674 115.95C216.814 115.878 216.93 115.812 217.022 115.752C217.118 115.688 217.2 115.656 217.268 115.656C217.356 115.656 217.424 115.69 217.472 115.758L217.772 116.148ZM220.194 112.14C220.386 111.724 220.622 111.4 220.902 111.168C221.182 110.932 221.524 110.814 221.928 110.814C222.056 110.814 222.178 110.828 222.294 110.856C222.414 110.884 222.52 110.928 222.612 110.988L222.534 111.786C222.51 111.886 222.45 111.936 222.354 111.936C222.298 111.936 222.216 111.924 222.108 111.9C222 111.876 221.878 111.864 221.742 111.864C221.55 111.864 221.378 111.892 221.226 111.948C221.078 112.004 220.944 112.088 220.824 112.2C220.708 112.308 220.602 112.444 220.506 112.608C220.414 112.768 220.33 112.952 220.254 113.16V117H219.18V110.922H219.792C219.908 110.922 219.988 110.944 220.032 110.988C220.076 111.032 220.106 111.108 220.122 111.216L220.194 112.14ZM227.373 113.298C227.373 113.05 227.337 112.824 227.265 112.62C227.197 112.412 227.095 112.234 226.959 112.086C226.827 111.934 226.665 111.818 226.473 111.738C226.281 111.654 226.063 111.612 225.819 111.612C225.307 111.612 224.901 111.762 224.601 112.062C224.305 112.358 224.121 112.77 224.049 113.298H227.373ZM228.237 116.148C228.105 116.308 227.947 116.448 227.763 116.568C227.579 116.684 227.381 116.78 227.169 116.856C226.961 116.932 226.745 116.988 226.521 117.024C226.297 117.064 226.075 117.084 225.855 117.084C225.435 117.084 225.047 117.014 224.691 116.874C224.339 116.73 224.033 116.522 223.773 116.25C223.517 115.974 223.317 115.634 223.173 115.23C223.029 114.826 222.957 114.362 222.957 113.838C222.957 113.414 223.021 113.018 223.149 112.65C223.281 112.282 223.469 111.964 223.713 111.696C223.957 111.424 224.255 111.212 224.607 111.06C224.959 110.904 225.355 110.826 225.795 110.826C226.159 110.826 226.495 110.888 226.803 111.012C227.115 111.132 227.383 111.308 227.607 111.54C227.835 111.768 228.013 112.052 228.141 112.392C228.269 112.728 228.333 113.112 228.333 113.544C228.333 113.712 228.315 113.824 228.279 113.88C228.243 113.936 228.175 113.964 228.075 113.964H224.013C224.025 114.348 224.077 114.682 224.169 114.966C224.265 115.25 224.397 115.488 224.565 115.68C224.733 115.868 224.933 116.01 225.165 116.106C225.397 116.198 225.657 116.244 225.945 116.244C226.213 116.244 226.443 116.214 226.635 116.154C226.831 116.09 226.999 116.022 227.139 115.95C227.279 115.878 227.395 115.812 227.487 115.752C227.583 115.688 227.665 115.656 227.733 115.656C227.821 115.656 227.889 115.69 227.937 115.758L228.237 116.148ZM116.821 129.704C116.821 130.348 116.719 130.94 116.515 131.48C116.311 132.016 116.023 132.478 115.651 132.866C115.279 133.254 114.831 133.556 114.307 133.772C113.787 133.984 113.211 134.09 112.579 134.09C111.947 134.09 111.371 133.984 110.851 133.772C110.331 133.556 109.885 133.254 109.513 132.866C109.141 132.478 108.853 132.016 108.649 131.48C108.445 130.94 108.343 130.348 108.343 129.704C108.343 129.06 108.445 128.47 108.649 127.934C108.853 127.394 109.141 126.93 109.513 126.542C109.885 126.15 110.331 125.846 110.851 125.63C111.371 125.414 111.947 125.306 112.579 125.306C113.211 125.306 113.787 125.414 114.307 125.63C114.831 125.846 115.279 126.15 115.651 126.542C116.023 126.93 116.311 127.394 116.515 127.934C116.719 128.47 116.821 129.06 116.821 129.704ZM115.627 129.704C115.627 129.176 115.555 128.702 115.411 128.282C115.267 127.862 115.063 127.508 114.799 127.22C114.535 126.928 114.215 126.704 113.839 126.548C113.463 126.392 113.043 126.314 112.579 126.314C112.119 126.314 111.701 126.392 111.325 126.548C110.949 126.704 110.627 126.928 110.359 127.22C110.095 127.508 109.891 127.862 109.747 128.282C109.603 128.702 109.531 129.176 109.531 129.704C109.531 130.232 109.603 130.706 109.747 131.126C109.891 131.542 110.095 131.896 110.359 132.188C110.627 132.476 110.949 132.698 111.325 132.854C111.701 133.006 112.119 133.082 112.579 133.082C113.043 133.082 113.463 133.006 113.839 132.854C114.215 132.698 114.535 132.476 114.799 132.188C115.063 131.896 115.267 131.542 115.411 131.126C115.555 130.706 115.627 130.232 115.627 129.704ZM119.131 129.14C119.323 128.724 119.559 128.4 119.839 128.168C120.119 127.932 120.461 127.814 120.865 127.814C120.993 127.814 121.115 127.828 121.231 127.856C121.351 127.884 121.457 127.928 121.549 127.988L121.471 128.786C121.447 128.886 121.387 128.936 121.291 128.936C121.235 128.936 121.153 128.924 121.045 128.9C120.937 128.876 120.815 128.864 120.679 128.864C120.487 128.864 120.315 128.892 120.163 128.948C120.015 129.004 119.881 129.088 119.761 129.2C119.645 129.308 119.539 129.444 119.443 129.608C119.351 129.768 119.267 129.952 119.191 130.16V134H118.117V127.922H118.729C118.845 127.922 118.925 127.944 118.969 127.988C119.013 128.032 119.043 128.108 119.059 128.216L119.131 129.14Z" fill="#B5B5B5"/>
<path d="M126.375 132.536C126.571 132.8 126.785 132.986 127.017 133.094C127.253 133.202 127.511 133.256 127.791 133.256C128.363 133.256 128.801 133.054 129.105 132.65C129.409 132.246 129.561 131.644 129.561 130.844C129.561 130.1 129.425 129.554 129.153 129.206C128.885 128.854 128.501 128.678 128.001 128.678C127.653 128.678 127.349 128.758 127.089 128.918C126.833 129.078 126.595 129.304 126.375 129.596V132.536ZM126.375 128.798C126.631 128.502 126.919 128.266 127.239 128.09C127.563 127.914 127.935 127.826 128.355 127.826C128.711 127.826 129.031 127.894 129.315 128.03C129.603 128.166 129.847 128.364 130.047 128.624C130.247 128.88 130.399 129.192 130.503 129.56C130.611 129.928 130.665 130.342 130.665 130.802C130.665 131.294 130.605 131.742 130.485 132.146C130.365 132.55 130.191 132.896 129.963 133.184C129.739 133.468 129.465 133.69 129.141 133.85C128.817 134.006 128.453 134.084 128.049 134.084C127.649 134.084 127.311 134.01 127.035 133.862C126.763 133.71 126.525 133.496 126.321 133.22L126.267 133.772C126.235 133.924 126.143 134 125.991 134H125.301V125.162H126.375V128.798ZM133.03 129.14C133.222 128.724 133.458 128.4 133.738 128.168C134.018 127.932 134.36 127.814 134.764 127.814C134.892 127.814 135.014 127.828 135.13 127.856C135.25 127.884 135.356 127.928 135.448 127.988L135.37 128.786C135.346 128.886 135.286 128.936 135.19 128.936C135.134 128.936 135.052 128.924 134.944 128.9C134.836 128.876 134.714 128.864 134.578 128.864C134.386 128.864 134.214 128.892 134.062 128.948C133.914 129.004 133.78 129.088 133.66 129.2C133.544 129.308 133.438 129.444 133.342 129.608C133.25 129.768 133.166 129.952 133.09 130.16V134H132.016V127.922H132.628C132.744 127.922 132.824 127.944 132.868 127.988C132.912 128.032 132.942 128.108 132.958 128.216L133.03 129.14ZM138.703 127.826C139.147 127.826 139.547 127.9 139.903 128.048C140.259 128.196 140.563 128.406 140.815 128.678C141.067 128.95 141.259 129.28 141.391 129.668C141.527 130.052 141.595 130.482 141.595 130.958C141.595 131.438 141.527 131.87 141.391 132.254C141.259 132.638 141.067 132.966 140.815 133.238C140.563 133.51 140.259 133.72 139.903 133.868C139.547 134.012 139.147 134.084 138.703 134.084C138.255 134.084 137.851 134.012 137.491 133.868C137.135 133.72 136.831 133.51 136.579 133.238C136.327 132.966 136.133 132.638 135.997 132.254C135.865 131.87 135.799 131.438 135.799 130.958C135.799 130.482 135.865 130.052 135.997 129.668C136.133 129.28 136.327 128.95 136.579 128.678C136.831 128.406 137.135 128.196 137.491 128.048C137.851 127.9 138.255 127.826 138.703 127.826ZM138.703 133.25C139.303 133.25 139.751 133.05 140.047 132.65C140.343 132.246 140.491 131.684 140.491 130.964C140.491 130.24 140.343 129.676 140.047 129.272C139.751 128.868 139.303 128.666 138.703 128.666C138.399 128.666 138.133 128.718 137.905 128.822C137.681 128.926 137.493 129.076 137.341 129.272C137.193 129.468 137.081 129.71 137.005 129.998C136.933 130.282 136.897 130.604 136.897 130.964C136.897 131.684 137.045 132.246 137.341 132.65C137.641 133.05 138.095 133.25 138.703 133.25ZM151.238 127.922L149.27 134H148.424C148.32 134 148.248 133.932 148.208 133.796L146.864 129.674C146.832 129.582 146.806 129.49 146.786 129.398C146.766 129.302 146.746 129.208 146.726 129.116C146.706 129.208 146.686 129.302 146.666 129.398C146.646 129.49 146.62 129.584 146.588 129.68L145.22 133.796C145.184 133.932 145.104 134 144.98 134H144.176L142.208 127.922H143.048C143.132 127.922 143.202 127.944 143.258 127.988C143.318 128.032 143.358 128.084 143.378 128.144L144.542 132.056C144.61 132.344 144.664 132.616 144.704 132.872C144.74 132.74 144.776 132.606 144.812 132.47C144.852 132.334 144.894 132.196 144.938 132.056L146.222 128.12C146.242 128.06 146.276 128.01 146.324 127.97C146.376 127.93 146.438 127.91 146.51 127.91H146.978C147.058 127.91 147.124 127.93 147.176 127.97C147.228 128.01 147.264 128.06 147.284 128.12L148.538 132.056C148.582 132.196 148.622 132.334 148.658 132.47C148.694 132.606 148.728 132.74 148.76 132.872C148.78 132.74 148.804 132.608 148.832 132.476C148.864 132.34 148.898 132.2 148.934 132.056L150.122 128.144C150.142 128.08 150.18 128.028 150.236 127.988C150.292 127.944 150.358 127.922 150.434 127.922H151.238ZM155.771 128.924C155.723 129.012 155.649 129.056 155.549 129.056C155.489 129.056 155.421 129.034 155.345 128.99C155.269 128.946 155.175 128.898 155.063 128.846C154.955 128.79 154.825 128.74 154.673 128.696C154.521 128.648 154.341 128.624 154.133 128.624C153.953 128.624 153.791 128.648 153.647 128.696C153.503 128.74 153.379 128.802 153.275 128.882C153.175 128.962 153.097 129.056 153.041 129.164C152.989 129.268 152.963 129.382 152.963 129.506C152.963 129.662 153.007 129.792 153.095 129.896C153.187 130 153.307 130.09 153.455 130.166C153.603 130.242 153.771 130.31 153.959 130.37C154.147 130.426 154.339 130.488 154.535 130.556C154.735 130.62 154.929 130.692 155.117 130.772C155.305 130.852 155.473 130.952 155.621 131.072C155.769 131.192 155.887 131.34 155.975 131.516C156.067 131.688 156.113 131.896 156.113 132.14C156.113 132.42 156.063 132.68 155.963 132.92C155.863 133.156 155.715 133.362 155.519 133.538C155.323 133.71 155.083 133.846 154.799 133.946C154.515 134.046 154.187 134.096 153.815 134.096C153.391 134.096 153.007 134.028 152.663 133.892C152.319 133.752 152.027 133.574 151.787 133.358L152.039 132.95C152.071 132.898 152.109 132.858 152.153 132.83C152.197 132.802 152.253 132.788 152.321 132.788C152.393 132.788 152.469 132.816 152.549 132.872C152.629 132.928 152.725 132.99 152.837 133.058C152.953 133.126 153.093 133.188 153.257 133.244C153.421 133.3 153.625 133.328 153.869 133.328C154.077 133.328 154.259 133.302 154.415 133.25C154.571 133.194 154.701 133.12 154.805 133.028C154.909 132.936 154.985 132.83 155.033 132.71C155.085 132.59 155.111 132.462 155.111 132.326C155.111 132.158 155.065 132.02 154.973 131.912C154.885 131.8 154.767 131.706 154.619 131.63C154.471 131.55 154.301 131.482 154.109 131.426C153.921 131.366 153.727 131.304 153.527 131.24C153.331 131.176 153.137 131.104 152.945 131.024C152.757 130.94 152.589 130.836 152.441 130.712C152.293 130.588 152.173 130.436 152.081 130.256C151.993 130.072 151.949 129.85 151.949 129.59C151.949 129.358 151.997 129.136 152.093 128.924C152.189 128.708 152.329 128.52 152.513 128.36C152.697 128.196 152.923 128.066 153.191 127.97C153.459 127.874 153.765 127.826 154.109 127.826C154.509 127.826 154.867 127.89 155.183 128.018C155.503 128.142 155.779 128.314 156.011 128.534L155.771 128.924ZM161.49 130.298C161.49 130.05 161.454 129.824 161.382 129.62C161.314 129.412 161.212 129.234 161.076 129.086C160.944 128.934 160.782 128.818 160.59 128.738C160.398 128.654 160.18 128.612 159.936 128.612C159.424 128.612 159.018 128.762 158.718 129.062C158.422 129.358 158.238 129.77 158.166 130.298H161.49ZM162.354 133.148C162.222 133.308 162.064 133.448 161.88 133.568C161.696 133.684 161.498 133.78 161.286 133.856C161.078 133.932 160.862 133.988 160.638 134.024C160.414 134.064 160.192 134.084 159.972 134.084C159.552 134.084 159.164 134.014 158.808 133.874C158.456 133.73 158.15 133.522 157.89 133.25C157.634 132.974 157.434 132.634 157.29 132.23C157.146 131.826 157.074 131.362 157.074 130.838C157.074 130.414 157.138 130.018 157.266 129.65C157.398 129.282 157.586 128.964 157.83 128.696C158.074 128.424 158.372 128.212 158.724 128.06C159.076 127.904 159.472 127.826 159.912 127.826C160.276 127.826 160.612 127.888 160.92 128.012C161.232 128.132 161.5 128.308 161.724 128.54C161.952 128.768 162.13 129.052 162.258 129.392C162.386 129.728 162.45 130.112 162.45 130.544C162.45 130.712 162.432 130.824 162.396 130.88C162.36 130.936 162.292 130.964 162.192 130.964H158.13C158.142 131.348 158.194 131.682 158.286 131.966C158.382 132.25 158.514 132.488 158.682 132.68C158.85 132.868 159.05 133.01 159.282 133.106C159.514 133.198 159.774 133.244 160.062 133.244C160.33 133.244 160.56 133.214 160.752 133.154C160.948 133.09 161.116 133.022 161.256 132.95C161.396 132.878 161.512 132.812 161.604 132.752C161.7 132.688 161.782 132.656 161.85 132.656C161.938 132.656 162.006 132.69 162.054 132.758L162.354 133.148ZM167.24 134V128.834L166.568 128.756C166.48 128.736 166.41 128.706 166.358 128.666C166.306 128.622 166.28 128.56 166.28 128.48V128.042H167.24V127.706C167.24 127.334 167.298 126.994 167.414 126.686C167.53 126.374 167.704 126.106 167.936 125.882C168.168 125.658 168.456 125.484 168.8 125.36C169.148 125.236 169.55 125.174 170.006 125.174C170.158 125.174 170.314 125.184 170.474 125.204C170.634 125.224 170.772 125.254 170.888 125.294L170.846 125.852C170.842 125.892 170.826 125.92 170.798 125.936C170.774 125.952 170.74 125.962 170.696 125.966C170.652 125.97 170.596 125.972 170.528 125.972C170.464 125.968 170.39 125.966 170.306 125.966C169.594 125.966 169.078 126.114 168.758 126.41C168.438 126.702 168.278 127.144 168.278 127.736V128.042H171.95V134H170.876V128.816H168.308V134H167.24ZM174.804 125.162V134H173.736V125.162H174.804ZM180.603 130.298C180.603 130.05 180.567 129.824 180.495 129.62C180.427 129.412 180.325 129.234 180.189 129.086C180.057 128.934 179.895 128.818 179.703 128.738C179.511 128.654 179.293 128.612 179.049 128.612C178.537 128.612 178.131 128.762 177.831 129.062C177.535 129.358 177.351 129.77 177.279 130.298H180.603ZM181.467 133.148C181.335 133.308 181.177 133.448 180.993 133.568C180.809 133.684 180.611 133.78 180.399 133.856C180.191 133.932 179.975 133.988 179.751 134.024C179.527 134.064 179.305 134.084 179.085 134.084C178.665 134.084 178.277 134.014 177.921 133.874C177.569 133.73 177.263 133.522 177.003 133.25C176.747 132.974 176.547 132.634 176.403 132.23C176.259 131.826 176.187 131.362 176.187 130.838C176.187 130.414 176.251 130.018 176.379 129.65C176.511 129.282 176.699 128.964 176.943 128.696C177.187 128.424 177.485 128.212 177.837 128.06C178.189 127.904 178.585 127.826 179.025 127.826C179.389 127.826 179.725 127.888 180.033 128.012C180.345 128.132 180.613 128.308 180.837 128.54C181.065 128.768 181.243 129.052 181.371 129.392C181.499 129.728 181.563 130.112 181.563 130.544C181.563 130.712 181.545 130.824 181.509 130.88C181.473 130.936 181.405 130.964 181.305 130.964H177.243C177.255 131.348 177.307 131.682 177.399 131.966C177.495 132.25 177.627 132.488 177.795 132.68C177.963 132.868 178.163 133.01 178.395 133.106C178.627 133.198 178.887 133.244 179.175 133.244C179.443 133.244 179.673 133.214 179.865 133.154C180.061 133.09 180.229 133.022 180.369 132.95C180.509 132.878 180.625 132.812 180.717 132.752C180.813 132.688 180.895 132.656 180.963 132.656C181.051 132.656 181.119 132.69 181.167 132.758L181.467 133.148ZM186.415 128.924C186.367 129.012 186.293 129.056 186.193 129.056C186.133 129.056 186.065 129.034 185.989 128.99C185.913 128.946 185.819 128.898 185.707 128.846C185.599 128.79 185.469 128.74 185.317 128.696C185.165 128.648 184.985 128.624 184.777 128.624C184.597 128.624 184.435 128.648 184.291 128.696C184.147 128.74 184.023 128.802 183.919 128.882C183.819 128.962 183.741 129.056 183.685 129.164C183.633 129.268 183.607 129.382 183.607 129.506C183.607 129.662 183.651 129.792 183.739 129.896C183.831 130 183.951 130.09 184.099 130.166C184.247 130.242 184.415 130.31 184.603 130.37C184.791 130.426 184.983 130.488 185.179 130.556C185.379 130.62 185.573 130.692 185.761 130.772C185.949 130.852 186.117 130.952 186.265 131.072C186.413 131.192 186.531 131.34 186.619 131.516C186.711 131.688 186.757 131.896 186.757 132.14C186.757 132.42 186.707 132.68 186.607 132.92C186.507 133.156 186.359 133.362 186.163 133.538C185.967 133.71 185.727 133.846 185.443 133.946C185.159 134.046 184.831 134.096 184.459 134.096C184.035 134.096 183.651 134.028 183.307 133.892C182.963 133.752 182.671 133.574 182.431 133.358L182.683 132.95C182.715 132.898 182.753 132.858 182.797 132.83C182.841 132.802 182.897 132.788 182.965 132.788C183.037 132.788 183.113 132.816 183.193 132.872C183.273 132.928 183.369 132.99 183.481 133.058C183.597 133.126 183.737 133.188 183.901 133.244C184.065 133.3 184.269 133.328 184.513 133.328C184.721 133.328 184.903 133.302 185.059 133.25C185.215 133.194 185.345 133.12 185.449 133.028C185.553 132.936 185.629 132.83 185.677 132.71C185.729 132.59 185.755 132.462 185.755 132.326C185.755 132.158 185.709 132.02 185.617 131.912C185.529 131.8 185.411 131.706 185.263 131.63C185.115 131.55 184.945 131.482 184.753 131.426C184.565 131.366 184.371 131.304 184.171 131.24C183.975 131.176 183.781 131.104 183.589 131.024C183.401 130.94 183.233 130.836 183.085 130.712C182.937 130.588 182.817 130.436 182.725 130.256C182.637 130.072 182.593 129.85 182.593 129.59C182.593 129.358 182.641 129.136 182.737 128.924C182.833 128.708 182.973 128.52 183.157 128.36C183.341 128.196 183.567 128.066 183.835 127.97C184.103 127.874 184.409 127.826 184.753 127.826C185.153 127.826 185.511 127.89 185.827 128.018C186.147 128.142 186.423 128.314 186.655 128.534L186.415 128.924Z" fill="#1B8BCE"/>
<defs>
<linearGradient id="paint0_linear_401_505" x1="148" y1="64" x2="164.176" y2="109.588" gradientUnits="userSpaceOnUse">
<stop stop-color="#E7E7E7"/>
<stop offset="1" stop-color="#848484" stop-opacity="0"/>
</linearGradient>
</defs>
</svg>
