<svg xmlns="http://www.w3.org/2000/svg" xmlns:xlink="http://www.w3.org/1999/xlink" version="1.1" width="1000" height="1000" viewBox="0 0 1000 1000" xml:space="preserve">
<desc>Created with Fabric.js 3.5.0</desc>
<defs>
</defs>
<rect x="0" y="0" width="100%" height="100%" fill="#ffffff"/>
<g transform="matrix(47.6202 0 0 49.917 538.5859 717.9203)" id="561269">
<g style="" vector-effect="non-scaling-stroke">
		<g transform="matrix(1 0 0 1 -6.332 -4)" clip-path="url(#CLIPPATH_7)">
<clipPath id="CLIPPATH_7">
	<rect transform="matrix(1 0 0 1 6.2812 0)" id="clip0_401_430" x="-10" y="-10" rx="0" ry="0" width="20" height="20"/>
</clipPath>
<path style="stroke: none; stroke-width: 1; stroke-dasharray: none; stroke-linecap: butt; stroke-dashoffset: 0; stroke-linejoin: miter; stroke-miterlimit: 4; is-custom-font: none; font-file-url: none; fill: rgb(66,139,193); fill-rule: nonzero; opacity: 1;" transform=" translate(-7.668, -10)" d="M 4.54297 10 C 4.54297 14.0938 7.16797 17.5625 10.793 18.8438 V 1.15625 C 7.16797 2.4375 4.54297 5.90625 4.54297 10 Z" stroke-linecap="round"/>
</g>
		<g transform="matrix(1 0 0 1 6.168 -4)" clip-path="url(#CLIPPATH_8)">
<clipPath id="CLIPPATH_8">
	<rect transform="matrix(1 0 0 1 -6.2188 0)" id="clip0_401_430" x="-10" y="-10" rx="0" ry="0" width="20" height="20"/>
</clipPath>
<path style="stroke: none; stroke-width: 1; stroke-dasharray: none; stroke-linecap: butt; stroke-dashoffset: 0; stroke-linejoin: miter; stroke-miterlimit: 4; is-custom-font: none; font-file-url: none; fill: rgb(237,76,92); fill-rule: nonzero; opacity: 1;" transform=" translate(-20.168, -10)" d="M 23.293 10 C 23.293 5.90625 20.6992 2.4375 17.043 1.15625 V 18.8438 C 20.6992 17.5625 23.293 14.0938 23.293 10 Z" stroke-linecap="round"/>
</g>
		<g transform="matrix(1 0 0 1 -0.082 -4)" clip-path="url(#CLIPPATH_9)">
<clipPath id="CLIPPATH_9">
	<rect transform="matrix(1 0 0 1 0.0312 0)" id="clip0_401_430" x="-10" y="-10" rx="0" ry="0" width="20" height="20"/>
</clipPath>
<path style="stroke: none; stroke-width: 1; stroke-dasharray: none; stroke-linecap: butt; stroke-dashoffset: 0; stroke-linejoin: miter; stroke-miterlimit: 4; is-custom-font: none; font-file-url: none; fill: rgb(255,255,255); fill-rule: nonzero; opacity: 1;" transform=" translate(-13.918, -10)" d="M 10.793 18.8438 C 11.7617 19.1875 12.8242 19.375 13.918 19.375 C 15.0117 19.375 16.0742 19.1875 17.043 18.8438 V 1.15625 C 16.0742 0.8125 15.043 0.625 13.918 0.625 C 12.793 0.625 11.7617 0.8125 10.793 1.15625 V 18.8438 Z" stroke-linecap="round"/>
</g>
</g>
</g>
</svg>